<svg id="Layer_1" data-name="Layer 1" xmlns="http://www.w3.org/2000/svg" xmlns:xlink="http://www.w3.org/1999/xlink" viewBox="0 0 395.65 153.54"><defs><style>.cls-1{fill:none;}.cls-2{fill:#00cdff;}.cls-3,.cls-6{fill:#22314c;}.cls-4{clip-path:url(#clip-path);}.cls-5{fill:url(#linear-gradient);}.cls-6{fill-rule:evenodd;}</style><clipPath id="clip-path" transform="translate(-2.37 -34.56)"><rect id="SVGID" class="cls-1" x="2.1" y="140.34" width="32.7" height="47.66"/></clipPath><linearGradient id="linear-gradient" x1="1070.48" y1="940.94" x2="1032.87" y2="890.48" gradientTransform="matrix(0.59, 0.36, -0.34, 0.56, -284.87, -726.62)" gradientUnits="userSpaceOnUse"><stop offset="0.03" stop-color="#ba529d"/><stop offset="1" stop-color="#61c5f0"/></linearGradient></defs><title>transferwise-integration</title><path id="Fill-1" class="cls-2" d="M43.58,34.56,50.42,46l-12,11.43H59.15l2-4.59H49.67L56.58,46l-4-6.84H71.39L54.85,78.23h5.67L79,34.56H43.58" transform="translate(-2.37 -34.56)"/><path id="Fill-14" class="cls-3" d="M327.06,58.87c-3.65-.49-5.8-1.2-5.8-3.59,0-2.19,2.15-3.53,4.8-3.53a12.17,12.17,0,0,1,6.59,2.12l2.29-3.39c-2.15-1.76-5.58-2.67-8.81-2.67-5.51,0-9.59,3.31-9.59,7.68,0,5,3.22,6.62,8.66,7.46,3.08.5,5.73.85,5.73,3.45,0,2.19-2.15,3.39-5,3.39a12,12,0,0,1-7.74-2.68l-2.07,3.73c1.79,1.62,5.51,2.89,9.66,2.89,5.73,0,9.89-3.31,9.89-7.75,0-5.35-4.3-6.55-8.6-7.11m-130.78,0c-3.66-.49-5.8-1.2-5.8-3.59,0-2.19,2.14-3.52,4.79-3.52a12.16,12.16,0,0,1,6.59,2.11l2.29-3.38c-2.14-1.76-5.58-2.68-8.81-2.68-5.51,0-9.59,3.31-9.59,7.68,0,5,3.22,6.62,8.67,7.47,3.08.49,5.72.84,5.72,3.45,0,2.18-2.15,3.38-5,3.38a12,12,0,0,1-7.73-2.68l-2.08,3.73c1.79,1.63,5.51,2.89,9.67,2.89,5.73,0,9.88-3.31,9.88-7.74,0-5.36-4.3-6.56-8.59-7.12M350.8,69.64c-4.58,0-7.73-3.6-7.73-8.81,0-4.86,2.72-9,7.16-9,5.08,0,6.44,4.23,6.59,6.84H348l-1.65,3.8h15.24c.07-1,.07-1.27.07-1.76,0-7.19-3.65-12.89-11.53-12.89-6.81,0-12,5.49-12,13,0,7.75,5,12.89,12.18,12.89,4.3,0,8.09-1.55,10.39-4.29l-2.87-2.75a9.67,9.67,0,0,1-7,3M264.67,48.86a11,11,0,0,0-4.08-.78c-2.65,0-5.52,1.06-6.88,3h-.21V48.29h-4.59v25h4.73V59.63c0-5.28,2.87-7.39,6.66-7.39a12.53,12.53,0,0,1,3.3.42l1.07-3.8m-131.56-.07a10.72,10.72,0,0,0-4.09-.71,8.08,8.08,0,0,0-6.58,3h-.22V48.29h-4.58v25h4.73V59.63c0-5.28,2.57-7.39,6.37-7.39a12.4,12.4,0,0,1,3.29.42l1.08-3.87M91.35,39.84v4.51H102V73.3h5V44.35h10.6V39.84H91.35m58.44,23.81c0,3.73-3.08,6.13-7.37,6.13-2.58,0-4.8-1.2-4.8-4.16,0-2.74,2.29-4.58,5.8-4.58,3.15,0,5.23.57,6.37,1.41v1.2ZM143.13,47.8a21.21,21.21,0,0,0-7.44,1.2l.78,3.8a20.06,20.06,0,0,1,6-1c4,0,7.3,1.84,7.3,5.92v.71a16.54,16.54,0,0,0-6.23-1.13c-6.44,0-10.67,3.24-10.67,8.52,0,5.5,4.16,8,8.81,8,3.87,0,6.52-1.55,7.88-3.38h.21V73.3h4.59V57.66c0-6.83-4.44-9.86-11.25-9.86Zm29.08,0c-3.15,0-6,1.2-7.45,3.66h-.21V48.29H160v25h4.73V59.78c0-4.94,2.51-7.9,6.45-7.9,3.72,0,5.94,2,5.94,6.55V73.3h4.73V57.59c0-6.34-3.73-9.79-9.6-9.79m42.61,0c0-3.1,1.51-4.86,4.37-4.86a13.87,13.87,0,0,1,4.16.77l1.5-3.45a13.82,13.82,0,0,0-5.8-1.27c-4.8,0-9,2.4-9,8.81v.77H207v4h3.15V73.3h4.72V52.52h4.8l1.65-4h-6.45V47.8m18.7,21.84c-4.59,0-7.74-3.6-7.74-8.81,0-4.86,2.72-9,7.16-9,5.09,0,6.45,4.23,6.59,6.84h-8.79l-1.64,3.8h15.23c.07-1,.07-1.27.07-1.76,0-7.19-3.65-12.89-11.53-12.89-6.8,0-12,5.49-12,13,0,7.75,5,12.89,12.17,12.89,4.3,0,8.1-1.55,10.39-4.29l-2.87-2.75a9.65,9.65,0,0,1-7,3m65.74-29.8-5.87,26h-.22l-6.08-17.54h-4.23l-6.95,17.54h-.21l-4.66-26H266l6.37,33.46h4.73l7.52-18.53h.21l6.52,18.53H296l8.09-33.46h-4.87m7.88,0h5.16v5.07h-5.16Zm.21,8.45h4.73v25h-4.73Z" transform="translate(-2.37 -34.56)"/><g class="cls-4"><path class="cls-5" d="M25.58,143.05a.87.87,0,0,1,.91-.48c.08,0,.16.08.25,0l.18.11s0,0,0,.05a1,1,0,0,1,.39.92,16.92,16.92,0,0,1,6.62,11.59c.5.32.68.67.57,1.12a.86.86,0,0,1-.82.67.94.94,0,0,1-.47-1.77,16.06,16.06,0,0,0-6.24-11c-.13,0-.19,0-.27.05a.92.92,0,0,1-1-.29A.94.94,0,0,1,25.58,143.05ZM4.25,155.12a1,1,0,0,0,.81.78.89.89,0,0,0,.94-.56,1,1,0,0,0-.4-1.16,12.25,12.25,0,0,1,8.46-10.07A12.72,12.72,0,0,1,26,146.55a1,1,0,0,0,.56,1.13.89.89,0,0,0,1-.23.93.93,0,0,0,.08-1.09,1,1,0,0,0-1.16-.39c-4.14-3.12-8.56-4-13.33-2.32a13,13,0,0,0-8.29,10.44A.93.93,0,0,0,4.25,155.12ZM12.1,158a8.81,8.81,0,0,0,.91,2c1.69,2.95,3.36,5.91,5,8.86a.83.83,0,0,0,.17.26l4.41-7.5c.58,0,.9-.25,1-.68a.92.92,0,0,0-.4-1,.87.87,0,0,0-1.07,0,1,1,0,0,0-.17,1.28l-3.79,6.45c-.06-.12-.12-.21-.17-.3-1.56-2.75-3.13-5.49-4.68-8.23a5.72,5.72,0,0,1-.69-3.89,4.81,4.81,0,0,1,.52-1.55c.58,0,.89-.21,1-.65a1,1,0,0,0-.38-1,.91.91,0,0,0-1.08,0,1,1,0,0,0-.18,1.23l-.15.36A6.37,6.37,0,0,0,12.1,158Zm10.6,23.22a1,1,0,0,0-1.17-.74c-.58.17-.76.7-.47,1.45l-2.8,4.77q-3.75-6.58-7.44-13.1a1,1,0,0,0-.11-1.23.93.93,0,0,0-1.09-.17.9.9,0,0,0-.43,1,1,1,0,0,0,1,.76q4,7.05,8,14.1s0,0,0,0h.05l3.4-5.78C22.45,182.23,22.82,181.83,22.7,181.22ZM5.71,161A19.36,19.36,0,0,0,7,163.57l8.36,14.71.87,1.53a1,1,0,0,0,.11,1.24.92.92,0,0,0,1.07.18.91.91,0,0,0,.46-1c-.09-.45-.4-.69-1-.79,0-.09-.1-.18-.15-.27L12,170.91q-2.38-4.18-4.76-8.37a13.06,13.06,0,0,1-.83-1.73c.42-.67.34-1.21-.23-1.53a.88.88,0,0,0-1.25.43C4.68,160.25,5,160.74,5.71,161Zm1.82-1.94a13.9,13.9,0,0,0,1.41,3.18c1.37,2.37,2.71,4.75,4.06,7.13a.56.56,0,0,1,.09.19,1,1,0,0,0,.13,1.22.91.91,0,0,0,1.07.16.89.89,0,0,0,.44-1c-.09-.45-.43-.7-1-.77-.4-.72-.81-1.43-1.21-2.14-1-1.79-2-3.59-3.06-5.37A10.78,10.78,0,0,1,8,154a9.73,9.73,0,0,1,.85-2.52c.59,0,.9-.28,1-.73a.94.94,0,0,0-.46-1,.89.89,0,0,0-1.05.1c-.34.3-.37.7-.11,1.26-.07.15-.14.3-.2.45s-.13.31-.19.46A11.15,11.15,0,0,0,7.53,159.1ZM9,157a.94.94,0,0,0,.85.65.88.88,0,0,0,.88-.6c.14-.44,0-.81-.52-1.17a7.69,7.69,0,0,1,5.16-7.13,8,8,0,0,1,8.33,2A1,1,0,0,0,24.1,152a.87.87,0,0,0,1.07-.07.9.9,0,0,0,.23-1c-.18-.43-.54-.61-1.14-.58a8.84,8.84,0,0,0-8.9-2.3c-3.67,1.3-5.57,4-5.91,7.91A.91.91,0,0,0,9,157Zm-.3,11.83a1.09,1.09,0,0,0-.76-.3l-.21-.36c-.78-1.38-1.55-2.77-2.35-4.14a15.71,15.71,0,0,1-2.22-9.71A14.43,14.43,0,0,1,4,150.76c.59-.14.88-.42.89-.88a1,1,0,0,0-.58-.91.89.89,0,0,0-1,.22c-.3.36-.29.75,0,1.27l-.06.2,0,.05a16.18,16.18,0,0,0,1.35,13.37c.65,1.17,1.34,2.33,2,3.5.26.44.5.89.75,1.32a1,1,0,0,0,.08,1.2.94.94,0,0,0,1.09.22.91.91,0,0,0,.47-.95A.89.89,0,0,0,8.71,168.85Zm23.68-8.64a1.1,1.1,0,0,0,.36.76,14.3,14.3,0,0,1-1.36,3.33l-.79,1.32q-2.36,4-4.7,8l-1.58,2.71a6.58,6.58,0,0,1-.38.63c-.56,0-.88.24-1,.66a.94.94,0,0,0,.42,1,.91.91,0,0,0,1.06-.05c.35-.29.4-.7.14-1.28l.63-1.06,5.23-8.92c.39-.69.78-1.37,1.2-2.05a14.78,14.78,0,0,0,1.5-3.13c.12-.34.23-.69.34-1,.52-.19.76-.49.74-.93a1,1,0,0,0-.67-.88.9.9,0,0,0-1,.33A1,1,0,0,0,32.39,160.21ZM17.82,181.63a1,1,0,0,0,.39,1,.89.89,0,0,0,1.05,0,.93.93,0,0,0,.32-.44,1.07,1.07,0,0,0-.15-.88l9.18-15.6c.57,0,.89-.26,1-.7a.94.94,0,0,0-.43-1,.9.9,0,0,0-1.07.08c-.33.3-.37.68-.13,1.25L18.83,181C18.25,181,17.94,181.2,17.82,181.63ZM28.3,161.4a11.17,11.17,0,0,0,.09-9A11.61,11.61,0,0,0,22,146c-.16-.56-.46-.84-.9-.86a.89.89,0,0,0-.87.55,1,1,0,0,0,.29,1.08A.9.9,0,0,0,21,147a1,1,0,0,0,.77-.28A10.8,10.8,0,0,1,27.62,161c-.55.06-.86.3-.93.74a1,1,0,0,0,.45,1,.9.9,0,0,0,1.09-.12A1,1,0,0,0,28.3,161.4ZM6.49,146.78a.83.83,0,0,0,.66-.31,1,1,0,0,0,.13-1A14.57,14.57,0,0,1,22.56,142c.16.56.46.85.92.87a.87.87,0,0,0,.87-.61.93.93,0,0,0-.36-1.06.91.91,0,0,0-1.16.07c-6.18-1.84-11.54-.62-16.13,3.72-.69-.11-1.16.23-1.17.83A1,1,0,0,0,6.49,146.78ZM29.32,162a1,1,0,0,0,.59.93.88.88,0,0,0,1-.25,1,1,0,0,0-.05-1.24,13.94,13.94,0,0,0-1-11.3c.28-.67.09-1.22-.5-1.43a.88.88,0,0,0-1.15.61c-.15.61.22,1.05,1.06,1.22a13.16,13.16,0,0,1,.93,10.58C29.59,161.25,29.34,161.5,29.32,162ZM16.75,150.12a1,1,0,0,0-1.2-.2.91.91,0,0,0-.39,1,1,1,0,0,0,.84.73.87.87,0,0,0,.52-.12,1,1,0,0,0,.45-.67,5.85,5.85,0,0,1,6.83,5.77.92.92,0,0,0-.58,1,1,1,0,0,0,.81.75.87.87,0,0,0,.92-.53c.18-.4.05-.79-.41-1.2A6.65,6.65,0,0,0,16.75,150.12Zm2.19,3.13c.16.6.42.88.89.92a.86.86,0,0,0,.89-.53.94.94,0,0,0-.24-1c-.38-.33-.73-.33-1.28,0l-.2,0a3.78,3.78,0,0,0-4.23,1.74,4,4,0,0,0,.06,4.17l.78,1.36a1,1,0,0,0,.1,1.22.91.91,0,0,0,1.07.2.89.89,0,0,0,.47-.94c-.06-.46-.36-.71-1-.84-.27-.46-.53-.92-.8-1.37a3.28,3.28,0,0,1,.51-4.1A3.1,3.1,0,0,1,18.94,153.25Zm-7.2,9.2,4.47,7.88a1,1,0,0,0,.11,1.23.92.92,0,0,0,1.07.18.88.88,0,0,0,.45-1c-.09-.45-.4-.69-1-.77l-4.48-7.88a1,1,0,0,0-.1-1.22.91.91,0,0,0-1.06-.21.9.9,0,0,0-.48,1C10.79,162.09,11.1,162.34,11.74,162.45Zm14.82-9.31a.9.9,0,0,0-1.35,1.05,1,1,0,0,0,.74.64,8.16,8.16,0,0,1-.39,5c-.44,1-1.07,1.81-1.55,2.74-.6,0-.92.25-1,.69a1,1,0,0,0,.41,1,.92.92,0,0,0,1.1-.08c.33-.29.37-.68.13-1.24.28-.47.54-1,.84-1.43a8.54,8.54,0,0,0,1.25-3,9,9,0,0,0-.06-3.86A1,1,0,0,0,26.56,153.14ZM15.18,174.28a1,1,0,0,0,.75.28l2.31,4.07,2.24-3.81c.57,0,.89-.24,1-.68a1,1,0,0,0-.41-1,.9.9,0,0,0-1.06,0c-.36.29-.41.67-.17,1.27l-1.61,2.75-1.68-3a1,1,0,0,0-.1-1.22.94.94,0,0,0-1.07-.2.92.92,0,0,0-.47,1A1,1,0,0,0,15.18,174.28ZM16.52,146c.42.47.78.59,1.19.42a.89.89,0,0,0,.53-.93,1,1,0,0,0-.74-.82c-.44-.1-.78.09-1.06.6a10.7,10.7,0,0,0-5.13,2.11.91.91,0,1,0-.11,1.7.77.77,0,0,0,.44-.31,1.09,1.09,0,0,0,.15-.83A9.88,9.88,0,0,1,16.52,146Zm1.25,16.61a1,1,0,0,0,.43,1,.9.9,0,0,0,1.1-.1,1,1,0,0,0,.1-1.22c.79-1.3,1.5-2.65,2.32-3.92a.9.9,0,0,0,.87-.78,1,1,0,0,0-.54-1,.86.86,0,0,0-1,.19c-.33.34-.33.7,0,1.28l-2.24,3.82C18.19,162,17.86,162.2,17.77,162.64Zm4.8,4.87a1,1,0,0,0-.42-1,.92.92,0,0,0-1.08.08,1,1,0,0,0-.13,1.24l-2.16,3.68a.91.91,0,0,0-1,.66,1,1,0,0,0,.42,1,.91.91,0,0,0,1.08-.07,1,1,0,0,0,.12-1.25l2.17-3.68A.87.87,0,0,0,22.57,167.51Zm-3.31-8.7a1,1,0,0,0,.13-1.24,1.7,1.7,0,0,0,.4-1.25,1.67,1.67,0,0,0-.67-1.18,1.58,1.58,0,0,0-2.29.35.9.9,0,0,0-.74,1.2.93.93,0,0,0,1.22.58.82.82,0,0,0,.5-.53,1,1,0,0,0-.22-1,.87.87,0,0,1,1.24.07,1,1,0,0,1-.08,1.35c-.57,0-.9.26-1,.7a1,1,0,0,0,.44,1A.87.87,0,0,0,19.26,158.81ZM26,166.42a1,1,0,0,0-.44-1,.92.92,0,0,0-1.07.1.94.94,0,0,0-.11,1.23l-1.66,2.82a.92.92,0,0,0-1,.65,1,1,0,0,0,.39,1,.92.92,0,0,0,1.06,0,.83.83,0,0,0,.31-.47,1,1,0,0,0-.13-.8L25,167.1A.9.9,0,0,0,26,166.42Z" transform="translate(-2.37 -34.56)"/></g><path class="cls-3" d="M72.76,182a2.51,2.51,0,0,1-1.28.32,2.59,2.59,0,0,1-2.36-1.46L62.44,168.2H56.66v11.41a2.68,2.68,0,1,1-5.36,0V150.79a2.73,2.73,0,0,1,2.54-2.69v-.27H64.21c5.41,0,10,4.78,10,10.46a10,10,0,0,1-6.14,9l5.86,11.09A2.69,2.69,0,0,1,72.76,182Zm-16.1-19.19h7.19a4.89,4.89,0,0,0,4.95-4.54c0-2.68-2.18-5-4.59-5H56.66Z" transform="translate(-2.37 -34.56)"/><path class="cls-3" d="M96.54,172.47h-14a6,6,0,0,0,5.78,4.59,7.64,7.64,0,0,0,4.77-1.72,2.73,2.73,0,0,1,3.87,0,2.7,2.7,0,0,1,0,3.87,12.66,12.66,0,0,1-8.59,3.23,11.42,11.42,0,0,1,0-22.83,10.41,10.41,0,0,1,2,.18,11,11,0,0,1,7.36,5.23,8.82,8.82,0,0,1,1.46,4.46,3.91,3.91,0,0,1-.36,1.32A2.48,2.48,0,0,1,96.54,172.47Zm-13.23-4.59H93a5.07,5.07,0,0,0-4.64-2.73A5.9,5.9,0,0,0,83.31,167.88Z" transform="translate(-2.37 -34.56)"/><path class="cls-3" d="M132.09,168.43v11.18a2.67,2.67,0,0,1-2.68,2.73,2.74,2.74,0,0,1-2.77-2.73V168.29a3.31,3.31,0,0,0-3.46-3.14,3.35,3.35,0,0,0-3.59,3.14v11.32a2.71,2.71,0,1,1-5.41,0V168.29a3.57,3.57,0,0,0-7.09,0v11.46a2.7,2.7,0,0,1-2.73,2.68,2.76,2.76,0,0,1-2.73-2.68V162.38a2.8,2.8,0,0,1,2.73-2.77,2.53,2.53,0,0,1,2.09,1.09,9.26,9.26,0,0,1,10.46,1.45,9,9,0,0,1,15.18,6.14Z" transform="translate(-2.37 -34.56)"/><path class="cls-3" d="M146.92,182.25a11.42,11.42,0,1,1,11.45-11.37A11.42,11.42,0,0,1,146.92,182.25Zm0-17.23a5.82,5.82,0,1,0,5.82,5.82A5.8,5.8,0,0,0,146.92,165Z" transform="translate(-2.37 -34.56)"/><path class="cls-3" d="M173.7,179.47A2.71,2.71,0,0,1,171,182.2a11.63,11.63,0,0,1-1.18,0,6.58,6.58,0,0,1-4-2,6.68,6.68,0,0,1-1.55-4.09V164.56h-2a2.73,2.73,0,1,1,0-5.45h2v-8.69a2.73,2.73,0,0,1,5.46,0v8.69h1.5a2.73,2.73,0,0,1,0,5.45h-1.5v10.82c.09.37,0,.91.31,1.18s.64.19,1,.19A2.73,2.73,0,0,1,173.7,179.47Z" transform="translate(-2.37 -34.56)"/><path class="cls-3" d="M195.34,172.47h-14a6,6,0,0,0,5.77,4.59,7.64,7.64,0,0,0,4.77-1.72,2.73,2.73,0,0,1,3.87,0,2.7,2.7,0,0,1-.05,3.87,12.66,12.66,0,0,1-8.59,3.23,11.42,11.42,0,0,1,0-22.83,10.41,10.41,0,0,1,2,.18,11,11,0,0,1,7.37,5.23,8.9,8.9,0,0,1,1.45,4.46,3.91,3.91,0,0,1-.36,1.32A2.48,2.48,0,0,1,195.34,172.47Zm-13.23-4.59h9.64a5.06,5.06,0,0,0-4.64-2.73A5.9,5.9,0,0,0,182.11,167.88Z" transform="translate(-2.37 -34.56)"/><path class="cls-3" d="M226.3,150.65a2.74,2.74,0,0,1-2.73,2.77h-7.82v26.24a2.75,2.75,0,1,1-5.5,0V153.42h-7.77a2.75,2.75,0,0,1,0-5.5h21.09A2.74,2.74,0,0,1,226.3,150.65Z" transform="translate(-2.37 -34.56)"/><path class="cls-3" d="M242.11,172.47h-14a6,6,0,0,0,5.77,4.59,7.66,7.66,0,0,0,4.78-1.72,2.72,2.72,0,0,1,3.86,0,2.69,2.69,0,0,1-.05,3.87,12.66,12.66,0,0,1-8.59,3.23,11.42,11.42,0,0,1,0-22.83,10.41,10.41,0,0,1,2,.18,11,11,0,0,1,7.37,5.23,8.9,8.9,0,0,1,1.45,4.46,3.91,3.91,0,0,1-.36,1.32A2.48,2.48,0,0,1,242.11,172.47Zm-13.23-4.59h9.64a5.06,5.06,0,0,0-4.64-2.73A5.9,5.9,0,0,0,228.88,167.88Z" transform="translate(-2.37 -34.56)"/><path class="cls-3" d="M270,162.2v17.41a2.6,2.6,0,0,1-2.64,2.59,2.41,2.41,0,0,1-2.41-2.59v-.54a10.37,10.37,0,0,1-7,2.68,11,11,0,1,1,0-22,10.74,10.74,0,0,1,7,2.64v-.23a2.41,2.41,0,0,1,2.41-2.59A2.6,2.6,0,0,1,270,162.2Zm-6.32,8.59a5.71,5.71,0,1,0-5.68,5.64A5.71,5.71,0,0,0,263.64,170.79Z" transform="translate(-2.37 -34.56)"/><path class="cls-3" d="M304,168.43v11.18a2.67,2.67,0,0,1-2.69,2.73,2.74,2.74,0,0,1-2.77-2.73V168.29a3.31,3.31,0,0,0-3.45-3.14,3.36,3.36,0,0,0-3.6,3.14v11.32a2.71,2.71,0,1,1-5.41,0V168.29a3.57,3.57,0,0,0-7.09,0v11.46a2.7,2.7,0,0,1-2.73,2.68,2.75,2.75,0,0,1-2.72-2.68V162.38a2.8,2.8,0,0,1,2.72-2.77,2.5,2.5,0,0,1,2.09,1.09,9.31,9.31,0,0,1,4.19-1,9.2,9.2,0,0,1,6.27,2.45A9,9,0,0,1,304,168.29Z" transform="translate(-2.37 -34.56)"/><path class="cls-3" d="M311.5,182.38h-.37a2.82,2.82,0,0,1-2.77-2.91,2.9,2.9,0,0,1,2.77-3h.37a2.93,2.93,0,0,1,2.77,3A2.84,2.84,0,0,1,311.5,182.38Z" transform="translate(-2.37 -34.56)"/><path class="cls-3" d="M329.77,182.2a11.32,11.32,0,0,1-7.91-3.18,11.6,11.6,0,0,1-3.5-8,11.13,11.13,0,0,1,3.23-8.09,11.4,11.4,0,0,1,8-3.51,11.27,11.27,0,0,1,8.09,3.23,2.68,2.68,0,0,1,.09,3.82,2.73,2.73,0,0,1-3.87.09,6,6,0,0,0-4.22-1.68,5.89,5.89,0,0,0-4.19,1.82,6,6,0,0,0-1.63,4.23,6,6,0,0,0,6,5.82,5.92,5.92,0,0,0,4-1.59,2.68,2.68,0,0,1,3.82.13,2.75,2.75,0,0,1-.14,3.87,11.27,11.27,0,0,1-7.54,3Z" transform="translate(-2.37 -34.56)"/><path class="cls-3" d="M352.92,182.25a11.42,11.42,0,1,1,11.45-11.37A11.42,11.42,0,0,1,352.92,182.25Zm0-17.23a5.82,5.82,0,1,0,5.82,5.82A5.8,5.8,0,0,0,352.92,165Z" transform="translate(-2.37 -34.56)"/><path class="cls-3" d="M398,168.43v11.18a2.67,2.67,0,0,1-2.68,2.73,2.75,2.75,0,0,1-2.78-2.73V168.29a3.31,3.31,0,0,0-3.45-3.14,3.35,3.35,0,0,0-3.59,3.14v11.32a2.71,2.71,0,1,1-5.41,0V168.29a3.58,3.58,0,0,0-7.1,0v11.46a2.7,2.7,0,0,1-2.73,2.68,2.75,2.75,0,0,1-2.72-2.68V162.38a2.8,2.8,0,0,1,2.72-2.77,2.54,2.54,0,0,1,2.1,1.09,9.24,9.24,0,0,1,10.45,1.45,8.9,8.9,0,0,1,6.28-2.45,8.8,8.8,0,0,1,8.91,8.59Z" transform="translate(-2.37 -34.56)"/><path class="cls-6" d="M214.31,111.39H202.53v11.79a.69.69,0,0,1-.7.69h-5.54a.69.69,0,0,1-.7-.69V111.39H183.8a.69.69,0,0,1-.69-.69v-5.55a.69.69,0,0,1,.69-.69h11.79V92.67a.69.69,0,0,1,.7-.69h5.54a.69.69,0,0,1,.7.69v11.79h11.78a.69.69,0,0,1,.7.69v5.55A.69.69,0,0,1,214.31,111.39Z" transform="translate(-2.37 -34.56)"/></svg>