<svg width="40" height="40" viewBox="0 0 40 40" fill="none" xmlns="http://www.w3.org/2000/svg">
<path d="M22.069 14.4825C19.3532 14.4833 16.8451 15.9357 15.4926 18.2904C14.1401 20.6451 14.1494 23.5433 15.517 25.8895C16.1152 24.3382 17.4611 23.1976 19.0895 22.8619C17.5173 21.2308 17.549 18.6385 19.1608 17.0465C20.7726 15.4545 23.3649 15.4545 24.9767 17.0465C26.5885 18.6385 26.6202 21.2308 25.048 22.8619C26.6764 23.1976 28.0221 24.3382 28.6202 25.8895C29.9881 23.5433 29.9972 20.6451 28.6451 18.2904C27.2926 15.9357 24.7843 14.4833 22.069 14.4825V14.4825Z" fill="white"/>
<path fill-rule="evenodd" clip-rule="evenodd" d="M33.5857 30.3033L39.289 35.8754C39.7429 36.3275 39.9982 36.9408 40 37.5811C40.0012 38.2213 39.7477 38.8355 39.2961 39.2894H39.289C38.8415 39.7474 38.2265 40.0037 37.5856 39.9996C36.9439 40.0011 36.3284 39.7442 35.8782 39.2867L30.1886 33.7213C30.0533 33.5946 29.9761 33.4181 29.975 33.2331C29.9735 33.0477 30.0485 32.8701 30.182 32.7418L30.9747 31.9488L29.8575 30.8317C29.8541 30.828 29.8528 30.8225 29.8492 30.819C25.0963 35.0463 17.8434 34.7277 13.4792 30.1005C9.115 25.4729 9.2212 18.2138 13.7187 13.7161C18.2167 9.21828 25.4754 9.11208 30.1031 13.4763C34.7305 17.8408 35.0489 25.0934 30.8218 29.8468C30.8252 29.8502 30.8306 29.8515 30.8341 29.8551L31.9512 30.9723L32.6136 30.3033C32.8823 30.0358 33.3169 30.0358 33.5857 30.3033ZM28.9722 27.7792C29.0132 27.7306 29.0547 27.6757 29.0962 27.6205C29.1669 27.5426 29.2315 27.4596 29.2891 27.3722C29.5276 27.0429 29.7464 26.6996 29.9443 26.3446C30.13 26.0014 30.2935 25.6464 30.4341 25.2826C30.4878 25.1645 30.5318 25.0424 30.5652 24.9169C30.5701 24.9113 30.5726 24.904 30.5721 24.8961C30.6133 24.786 30.6477 24.6689 30.6825 24.5514C30.8485 23.9827 30.9547 23.3979 30.9998 22.8068C31.0135 22.7241 31.0135 22.6342 31.0206 22.5517C31.0272 22.393 31.0342 22.2275 31.0342 22.0688C31.0342 17.1174 27.0204 13.1035 22.069 13.1035C17.1171 13.1035 13.1032 17.1174 13.1032 22.0688V22.1032C13.1032 22.2551 13.1103 22.3998 13.1174 22.5517C13.124 22.6342 13.124 22.7241 13.1377 22.8068C13.1814 23.3859 13.2851 23.9594 13.4482 24.517C13.4826 24.6481 13.5241 24.7724 13.5652 24.8961C13.5644 24.904 13.5671 24.9115 13.5722 24.9169L13.6342 25.1031C13.655 25.1655 13.6828 25.2275 13.7031 25.2826C13.7517 25.4069 13.8 25.5306 13.8552 25.6481C13.9028 25.7744 13.9602 25.8966 14.0276 26.0136C14.0481 26.0616 14.0759 26.1239 14.1032 26.1723C14.1311 26.2204 14.1516 26.2619 14.1792 26.3103C14.1931 26.3446 14.2138 26.372 14.2275 26.4066C14.4091 26.7419 14.6167 27.0624 14.8481 27.3654C14.9084 27.4552 14.9751 27.5407 15.0481 27.6205C15.0896 27.6757 15.1308 27.7306 15.1723 27.7792C15.2204 27.8412 15.2687 27.8964 15.3173 27.9516C15.331 27.9655 15.3376 27.9791 15.3518 27.9929L15.393 28.0344C15.4553 28.1035 15.517 28.1652 15.5861 28.2342C15.655 28.3031 15.7307 28.3794 15.7998 28.455H15.7929C15.8068 28.4686 15.8205 28.4826 15.8276 28.4894C15.8342 28.4965 15.8413 28.4965 15.8483 28.5101L15.9655 28.6274H15.9721L16.0136 28.6689C16.2551 28.8896 16.5031 29.0892 16.7585 29.2826C17.0781 29.517 17.412 29.7311 17.7582 29.924C17.9308 30.0133 18.1032 30.1032 18.2756 30.186C18.4621 30.2756 18.6342 30.3515 18.8207 30.4206C18.9638 30.4833 19.1112 30.5365 19.2619 30.5792C19.4135 30.6273 19.5653 30.6757 19.717 30.7172C20.0212 30.8007 20.3297 30.8676 20.6413 30.9171C20.724 30.9308 20.8136 30.9445 20.8964 30.9516C20.9804 30.9691 21.0658 30.9808 21.1515 30.986C21.4562 31.0192 21.7626 31.0356 22.069 31.0343C22.2272 31.0343 22.3859 31.0272 22.5514 31.0205C22.6964 31.0136 22.8412 30.9997 22.9859 30.986C23.0717 30.9808 23.1572 30.9691 23.241 30.9516C23.324 30.9445 23.4069 30.9308 23.4964 30.9171C23.8078 30.8676 24.1163 30.8007 24.4205 30.7172C24.5722 30.6757 24.724 30.6273 24.8757 30.5792C25.0263 30.5365 25.1736 30.4833 25.3173 30.4206C26.0511 30.133 26.7445 29.7506 27.3793 29.2826H27.3859C27.5237 29.1791 27.6546 29.0756 27.786 28.9655L28.117 28.6755H28.1239C28.326 28.4965 28.515 28.3029 28.6892 28.0964C28.7307 28.0549 28.7515 28.0272 28.786 27.9929L28.7929 27.9857C28.8551 27.9171 28.91 27.8482 28.9722 27.7792Z" fill="white"/>
<path d="M0.241453 9.65502H6.65521C6.78753 9.65356 6.89495 9.54637 6.89667 9.41356C6.89349 8.02465 5.76825 6.89966 4.3791 6.89648H2.51706C1.12816 6.89966 0.00292966 8.02465 0 9.41356C0.00146483 9.54637 0.108642 9.65356 0.241453 9.65502Z" fill="white"/>
<path d="M4.82759 4.13775C4.82759 4.89995 4.20992 5.51715 3.44821 5.51715C2.6865 5.51715 2.06908 4.89995 2.06908 4.13775C2.06908 3.37603 2.6865 2.75885 3.44821 2.75885C4.20992 2.75885 4.82759 3.37603 4.82759 4.13775Z" fill="white"/>
<path d="M0.68969 4.13768C0.685053 2.94213 1.4514 1.87939 2.58762 1.50635C3.7236 1.13305 4.97066 1.53442 5.67598 2.50024C6.38105 3.46605 6.38397 4.7761 5.68257 5.74485C6.12519 5.90379 6.53583 6.13962 6.89667 6.44113V0.689694C6.89667 0.308837 6.58783 0 6.20697 0H0.68969C0.308836 0 0 0.308837 0 0.689694V6.44113C0.360593 6.13962 0.771477 5.90379 1.21361 5.74485C0.87548 5.27683 0.692133 4.71506 0.68969 4.13768Z" fill="white"/>
<path d="M4.3791 35.8616H2.51706C1.12816 35.8647 0.00292966 36.9898 0 38.3789C0.00146483 38.5115 0.108642 38.6189 0.241453 38.6204H6.65521C6.78753 38.6189 6.89495 38.5115 6.89667 38.3789C6.89349 36.9898 5.76825 35.8647 4.3791 35.8616Z" fill="white"/>
<path d="M4.82759 33.1031C4.82759 33.8649 4.20992 34.4823 3.44821 34.4823C2.6865 34.4823 2.06908 33.8649 2.06908 33.1031C2.06908 32.3414 2.6865 31.724 3.44821 31.724C4.20992 31.724 4.82759 32.3414 4.82759 33.1031Z" fill="white"/>
<path d="M6.20697 28.9655H0.68969C0.308836 28.9655 0 29.274 0 29.6549V35.4066C0.360593 35.1048 0.771477 34.8692 1.21361 34.7101C0.386227 33.5675 0.554438 31.9845 1.60326 31.0411C2.65256 30.098 4.24411 30.098 5.29292 31.0411C6.34173 31.9845 6.50995 33.5675 5.68257 34.7101C6.12519 34.8692 6.53583 35.1048 6.89667 35.4066V29.6549C6.89667 29.274 6.58783 28.9655 6.20697 28.9655V28.9655Z" fill="white"/>
<path d="M38.6201 9.41356C38.6172 8.02465 37.4919 6.89966 36.103 6.89648H34.241C32.8521 6.89966 31.7268 8.02465 31.7239 9.41356C31.7254 9.54637 31.8326 9.65356 31.9654 9.65502H38.3789C38.5115 9.65356 38.6186 9.54637 38.6201 9.41356Z" fill="white"/>
<path d="M36.5514 4.13775C36.5514 4.89995 35.9338 5.51715 35.1721 5.51715C34.4103 5.51715 33.7927 4.89995 33.7927 4.13775C33.7927 3.37603 34.4103 2.75885 35.1721 2.75885C35.9338 2.75885 36.5514 3.37603 36.5514 4.13775Z" fill="white"/>
<path d="M32.9375 5.74485C32.1101 4.60228 32.2784 3.01927 33.3272 2.07592C34.3762 1.13281 35.968 1.13281 37.0168 2.07592C38.0657 3.01927 38.2339 4.60228 37.4065 5.74485C37.8486 5.90379 38.2598 6.13962 38.6201 6.44113V0.689694C38.6201 0.308837 38.3118 0 37.9304 0H32.4136C32.0325 0 31.7239 0.308837 31.7239 0.689694V6.44113C32.0843 6.13962 32.4954 5.90379 32.9375 5.74485Z" fill="white"/>
<path d="M4.13783 28.2757V26.8964C4.13783 26.5155 3.82899 26.2067 3.44814 26.2067C3.06729 26.2067 2.75845 26.5155 2.75845 26.8964V28.2757C2.75845 28.6566 3.06729 28.9654 3.44814 28.9654C3.82899 28.9654 4.13783 28.6566 4.13783 28.2757Z" fill="white"/>
<path d="M2.75845 10.3447V11.724C2.75845 12.1049 3.06729 12.4137 3.44814 12.4137C3.82899 12.4137 4.13783 12.1049 4.13783 11.724V10.3447C4.13783 9.96381 3.82899 9.65497 3.44814 9.65497C3.06729 9.65497 2.75845 9.96381 2.75845 10.3447Z" fill="white"/>
<path d="M3.44814 22.0688C3.06729 22.0688 2.75845 22.3776 2.75845 22.7585V24.1376C2.75845 24.5187 3.06729 24.8273 3.44814 24.8273C3.82899 24.8273 4.13783 24.5187 4.13783 24.1376V22.7585C4.13783 22.3776 3.82899 22.0688 3.44814 22.0688Z" fill="white"/>
<path d="M4.13783 18.6205C4.13783 18.2394 3.82899 17.931 3.44814 17.931C3.06729 17.931 2.75845 18.2394 2.75845 18.6205V19.9996C2.75845 20.3805 3.06729 20.6893 3.44814 20.6893C3.82899 20.6893 4.13783 20.3805 4.13783 19.9996V18.6205Z" fill="white"/>
<path d="M4.13783 14.4825C4.13783 14.1017 3.82899 13.7931 3.44814 13.7931C3.06729 13.7931 2.75845 14.1017 2.75845 14.4825V15.8619C2.75845 16.2428 3.06729 16.5516 3.44814 16.5516C3.82899 16.5516 4.13783 16.2428 4.13783 15.8619V14.4825Z" fill="white"/>
<path d="M34.4824 10.3447V11.724C34.4824 12.1049 34.7912 12.4137 35.1721 12.4137C35.5529 12.4137 35.8618 12.1049 35.8618 11.724V10.3447C35.8618 9.96381 35.5529 9.65497 35.1721 9.65497C34.7912 9.65497 34.4824 9.96381 34.4824 10.3447Z" fill="white"/>
<path d="M35.1721 13.7931C34.7912 13.7931 34.4824 14.1017 34.4824 14.4825V15.8619C34.4824 16.2428 34.7912 16.5516 35.1721 16.5516C35.5529 16.5516 35.8618 16.2428 35.8618 15.8619V14.4825C35.8618 14.1017 35.5529 13.7931 35.1721 13.7931Z" fill="white"/>
<path d="M24.8273 5.51697H26.2067C26.5876 5.51697 26.8964 5.20813 26.8964 4.82727C26.8964 4.44641 26.5876 4.13757 26.2067 4.13757H24.8273C24.4465 4.13757 24.1376 4.44641 24.1376 4.82727C24.1376 5.20813 24.4465 5.51697 24.8273 5.51697Z" fill="white"/>
<path d="M28.9652 5.51697H31.0342C31.4151 5.51697 31.7239 5.20813 31.7239 4.82727C31.7239 4.44641 31.4151 4.13757 31.0342 4.13757H28.9652C28.5843 4.13757 28.2755 4.44641 28.2755 4.82727C28.2755 5.20813 28.5843 5.51697 28.9652 5.51697Z" fill="white"/>
<path d="M7.58579 5.51697H9.65486C10.0357 5.51697 10.3446 5.20813 10.3446 4.82727C10.3446 4.44641 10.0357 4.13757 9.65486 4.13757H7.58579C7.20494 4.13757 6.89659 4.44641 6.89659 4.82727C6.89659 5.20813 7.20494 5.51697 7.58579 5.51697Z" fill="white"/>
<path d="M9.65486 33.1031H7.58579C7.20494 33.1031 6.89659 33.4117 6.89659 33.7928C6.89659 34.1736 7.20494 34.4822 7.58579 34.4822H9.65486C10.0357 34.4822 10.3446 34.1736 10.3446 33.7928C10.3446 33.4117 10.0357 33.1031 9.65486 33.1031Z" fill="white"/>
<path d="M20.6898 5.51697H22.0692C22.45 5.51697 22.7584 5.20813 22.7584 4.82727C22.7584 4.44641 22.45 4.13757 22.0692 4.13757H20.6898C20.3089 4.13757 20.0001 4.44641 20.0001 4.82727C20.0001 5.20813 20.3089 5.51697 20.6898 5.51697Z" fill="white"/>
<path d="M16.5516 5.51697H17.9308C18.3119 5.51697 18.6205 5.20813 18.6205 4.82727C18.6205 4.44641 18.3119 4.13757 17.9308 4.13757H16.5516C16.1708 4.13757 15.862 4.44641 15.862 4.82727C15.862 5.20813 16.1708 5.51697 16.5516 5.51697Z" fill="white"/>
<path d="M12.4135 5.51697H13.7926C14.1735 5.51697 14.4823 5.20813 14.4823 4.82727C14.4823 4.44641 14.1735 4.13757 13.7926 4.13757H12.4135C12.0324 4.13757 11.7238 4.44641 11.7238 4.82727C11.7238 5.20813 12.0324 5.51697 12.4135 5.51697Z" fill="white"/>
<path d="M13.7926 33.1031H12.4135C12.0324 33.1031 11.7238 33.4117 11.7238 33.7928C11.7238 34.1736 12.0324 34.4822 12.4135 34.4822H13.7926C14.1735 34.4822 14.4823 34.1736 14.4823 33.7928C14.4823 33.4117 14.1735 33.1031 13.7926 33.1031Z" fill="white"/>
<path d="M24.8268 19.9997C24.8268 21.5234 23.592 22.7585 22.0686 22.7585C20.5447 22.7585 19.3098 21.5234 19.3098 19.9997C19.3098 18.4763 20.5447 17.2415 22.0686 17.2415C23.592 17.2415 24.8268 18.4763 24.8268 19.9997Z" fill="white"/>
<path d="M24.0275 24.1376H20.1103C19.1267 24.1332 18.1863 24.5409 17.5171 25.2619C17.3713 25.4132 17.2419 25.5797 17.1309 25.7584C16.8342 26.213 16.6455 26.7296 16.5791 27.2687C16.4827 27.1652 16.3794 27.0617 16.2825 26.9516C16.3684 27.0731 16.4678 27.1842 16.5791 27.2824L16.6206 27.3239C16.669 27.3722 16.7171 27.4274 16.7725 27.4826C16.7866 27.5004 16.803 27.5165 16.8206 27.5309C16.8276 27.5309 16.8276 27.5309 16.8276 27.5377C16.8469 27.5499 16.8633 27.5665 16.8757 27.5861C16.9104 27.6134 16.9514 27.6549 16.9861 27.6896H16.9929C17.1196 27.8119 17.2534 27.9269 17.3931 28.0343L17.3999 28.0411C17.4067 28.048 17.4138 28.048 17.4138 28.0548C17.4138 28.0619 17.4343 28.0687 17.4482 28.0756C17.5942 28.1967 17.7485 28.3073 17.9104 28.4066C18.0688 28.5101 18.2275 28.6066 18.3931 28.7033C18.415 28.712 18.4358 28.7238 18.4551 28.7377C18.6138 28.8204 18.7722 28.8964 18.9309 28.972C19.0945 29.0511 19.2627 29.1202 19.4343 29.1791C19.4482 29.1862 19.4551 29.1862 19.4619 29.1927C19.6758 29.2755 19.8894 29.3378 20.1103 29.3998C20.1516 29.4066 20.1931 29.4205 20.2412 29.4274C20.4614 29.4864 20.6848 29.5323 20.9101 29.5653C21.6779 29.6847 22.4597 29.6847 23.2275 29.5653C23.4528 29.5323 23.6762 29.4864 23.8964 29.4274C23.9445 29.4205 23.986 29.4066 24.0275 29.3998C24.2482 29.3378 24.4619 29.2755 24.6757 29.1927C24.6825 29.1862 24.6894 29.1862 24.7033 29.1791C25.0417 29.0604 25.3693 28.9127 25.6825 28.7377C25.7018 28.7238 25.7226 28.712 25.7448 28.7033C25.9101 28.6066 26.0688 28.5101 26.2275 28.4066C26.3891 28.3073 26.5434 28.1967 26.6896 28.0756C26.6999 28.0704 26.7091 28.0634 26.717 28.0548C26.724 28.0411 26.7309 28.0411 26.7377 28.0343H26.7445C26.8847 27.9269 27.018 27.8119 27.1444 27.6896H27.1515L27.2135 27.6273C27.3236 27.5333 27.4274 27.432 27.5238 27.3239C27.5309 27.3102 27.5375 27.3102 27.5446 27.3031C27.5514 27.2965 27.5514 27.2894 27.5583 27.2824C27.3529 25.4887 25.8332 24.1349 24.0275 24.1376Z" fill="white"/>
</svg>
