<svg width="40" height="29" viewBox="0 0 40 29" fill="none" xmlns="http://www.w3.org/2000/svg">
<path d="M2.7655 6.3244C2.7655 6.3244 8.29689 7.27776 10.7553 11.4838C12.9064 14.5953 14.7502 18.9732 21.2035 18.9732L2.7655 18.9133V6.3244Z" fill="white"/>
<path d="M2.17364 19.4397V2.60603C2.17364 2.46646 2.2787 2.35274 2.40718 2.35274H25.3247C25.4531 2.35274 25.5581 2.46646 25.5581 2.60603V9.35318H27.7317V2.60603C27.7317 1.16891 26.6524 3.21312e-09 25.3247 3.21312e-09H2.40718C1.07946 -7.07665e-05 0 1.16891 0 2.60603V19.4397C0 20.8769 1.07946 22.0459 2.40718 22.0459H10.0891V25.4232H8.87807C8.27741 25.4232 7.79129 25.9499 7.79129 26.5997C7.79129 27.2492 8.27748 27.776 8.87807 27.776H18.8535C19.4542 27.776 19.9404 27.2492 19.9404 26.5997C19.9404 25.9499 19.4542 25.4232 18.8535 25.4232H17.6416V22.0459H21.3265V19.6931H2.40718C2.27877 19.6931 2.17364 19.5793 2.17364 19.4397Z" fill="white"/>
<path fill-rule="evenodd" clip-rule="evenodd" d="M23.6953 28.6262H31.9073C31.6719 28.2075 31.5343 27.7219 31.5343 27.2029V26.3542H23.8293V12.455H33.6706V14.1562C33.801 14.1377 33.9313 14.1229 34.0653 14.1229H35.166V11.9472C35.166 11.343 34.8185 10.8241 34.3223 10.6017C34.1559 10.5276 33.9748 10.4868 33.7829 10.4868H23.6989C23.507 10.4868 23.326 10.5276 23.1594 10.6017C22.6634 10.8241 22.3158 11.343 22.3158 11.9472V27.1659C22.3158 27.9739 22.9349 28.6262 23.6953 28.6262ZM40 16.8212V27.2029C40 27.9851 39.3953 28.6263 38.6566 28.6263H34.0655C33.3269 28.6263 32.7221 27.9851 32.7221 27.2029V16.8212C32.7221 16.0391 33.3269 15.3979 34.0655 15.3979H38.6566C39.3953 15.3979 40 16.0391 40 16.8212ZM38.7542 26.6988C38.7615 26.6988 38.7723 26.6952 38.7795 26.6952H38.776V17.3401C38.7687 17.3401 38.7615 17.3364 38.7542 17.3364H33.9675C33.9602 17.3364 33.9494 17.3401 33.9421 17.3401V26.6952C33.9494 26.6952 33.9602 26.6988 33.9675 26.6988H38.7542ZM29.3869 27.1511H28.0906C27.8987 27.1511 27.743 27.3179 27.743 27.5218C27.743 27.7255 27.8987 27.8924 28.0906 27.8924H29.3869C29.5788 27.8924 29.7345 27.7255 29.7345 27.5218C29.7345 27.3179 29.5788 27.1511 29.3869 27.1511ZM36.9403 28.0295H35.6441C35.4521 28.0295 35.2964 27.8628 35.2964 27.6589C35.2964 27.455 35.4521 27.2883 35.6441 27.2883H36.9403C37.1322 27.2883 37.2878 27.455 37.2878 27.6589C37.2878 27.8628 37.1322 28.0295 36.9403 28.0295Z" fill="white"/>
</svg>
