<svg width="44" height="44" viewBox="0 0 44 44" fill="none" xmlns="http://www.w3.org/2000/svg">
<path d="M31.5625 19.625H24.375V12.4375C24.375 11.6469 23.7281 11 22.9375 11H20.0625C19.2719 11 18.625 11.6469 18.625 12.4375V19.625H11.4375C10.6469 19.625 10 20.2719 10 21.0625V23.9375C10 24.7281 10.6469 25.375 11.4375 25.375H18.625V32.5625C18.625 33.3531 19.2719 34 20.0625 34H22.9375C23.7281 34 24.375 33.3531 24.375 32.5625V25.375H31.5625C32.3531 25.375 33 24.7281 33 23.9375V21.0625C33 20.2719 32.3531 19.625 31.5625 19.625Z" fill="#919191"/>
</svg>
