<svg width="40" height="33" viewBox="0 0 40 33" fill="none" xmlns="http://www.w3.org/2000/svg">
<path fill-rule="evenodd" clip-rule="evenodd" d="M24.5761 7.18495C26.5595 7.18495 28.1726 5.57374 28.1726 3.59247C28.1726 1.61127 26.5597 0 24.5761 0C22.5926 0 20.9795 1.61127 20.9795 3.59247C20.9795 5.57374 22.5926 7.18495 24.5761 7.18495ZM30.2804 30.2789V26.7866C30.2804 26.574 30.3652 26.3935 30.5348 26.2448C30.7044 26.0961 30.9105 26.0218 31.1527 26.0218H31.4433V24.4925C31.4433 23.5153 31.8431 22.6765 32.6427 21.9755C33.0678 21.6028 33.5376 21.3292 34.0519 21.1546L32.5701 4.23506C32.5407 3.90576 32.25 3.65969 31.921 3.69082L29.3548 3.91478C29.1882 6.40556 27.1112 8.38255 24.5763 8.38255C23.4691 8.38255 22.4514 8.00416 21.6398 7.37188L19.6053 9.40463C19.4879 9.52136 19.3349 9.58002 19.1815 9.58002C19.0281 9.58002 18.8746 9.52136 18.7578 9.40463C18.5234 9.17049 18.5234 8.79155 18.7578 8.55802L20.7928 6.52473C20.3888 6.00383 20.0886 5.39848 19.9254 4.73927L6.84069 5.88228C6.68186 5.89666 6.53561 5.97209 6.43368 6.09424C6.33115 6.21579 6.28144 6.37267 6.29583 6.5307L8.49032 31.582C8.5179 31.8933 8.77926 32.1287 9.08673 32.1287C9.1041 32.1287 9.12149 32.1281 9.13948 32.1263L30.2804 30.2789ZM6.28905 4.79327C5.9911 4.89928 5.72321 5.0759 5.51639 5.32258C5.21068 5.68545 5.05906 6.16444 5.10156 6.63501L7.26428 31.3241L0.547167 30.7368C0.216887 30.708 -0.0264784 30.4176 0.00231248 30.0883L2.19626 5.03635C2.21004 4.87832 2.28617 4.73222 2.40785 4.63042C2.53015 4.52745 2.68713 4.47597 2.84542 4.49212L6.28905 4.79327ZM28.219 12.4905L26.4279 12.6473C26.0976 12.6761 25.8542 12.9665 25.8824 13.2957C25.91 13.6071 26.1719 13.8423 26.4788 13.8423C26.4968 13.8423 26.5142 13.8417 26.5316 13.84L28.3233 13.6831C28.6529 13.655 28.8969 13.3639 28.8681 13.0346C28.8388 12.706 28.5468 12.4587 28.219 12.4905ZM19.8594 13.2215L24.0386 12.8562C24.3665 12.8269 24.6584 13.0712 24.6877 13.4005C24.7166 13.7298 24.4732 14.0202 24.1429 14.0489L19.9631 14.4141C19.9457 14.416 19.9283 14.4166 19.9104 14.4166C19.6034 14.4166 19.3415 14.1813 19.3139 13.8699C19.2857 13.5407 19.5291 13.2503 19.8594 13.2215ZM12.0958 13.9C11.7661 13.9287 11.5221 14.2191 11.5509 14.5484C11.5784 14.8597 11.8404 15.095 12.1472 15.095C12.1652 15.095 12.1826 15.0944 12.2 15.0926L17.5744 14.6232C17.9047 14.5945 18.148 14.3035 18.1193 13.9747C18.0905 13.6454 17.7932 13.4006 17.4701 13.4305L12.0958 13.9ZM28.6368 17.2624C28.9671 17.2337 29.2104 16.9432 29.1816 16.614C29.1523 16.2847 28.8609 16.0399 28.5324 16.0697L24.3526 16.4349C24.0224 16.4636 23.7791 16.754 23.8072 17.0833C23.8348 17.3953 24.0967 17.6301 24.4042 17.6301C24.4216 17.6301 24.439 17.6294 24.4563 17.6277L28.6368 17.2624ZM16.5895 17.1134C16.2598 17.1421 16.0159 17.4325 16.0447 17.7618C16.0723 18.0731 16.3342 18.3084 16.6411 18.3084C16.6591 18.3084 16.6765 18.3078 16.6938 18.3061L20.8743 17.9408C21.2045 17.9122 21.4478 17.6217 21.419 17.2924C21.3898 16.9631 21.096 16.7158 20.7699 16.7482L16.5895 17.1134ZM11.8649 18.127C11.8362 17.7977 12.0795 17.5072 12.4098 17.4786L14.2009 17.3223C14.5336 17.2947 14.8213 17.5373 14.85 17.8665C14.8789 18.1952 14.6355 18.4862 14.3052 18.5149L12.5141 18.6712C12.4961 18.673 12.4788 18.6736 12.4614 18.6736C12.1539 18.6737 11.8926 18.439 11.8649 18.127ZM29.4951 20.1915C29.5245 20.5214 29.2799 20.8124 28.9509 20.8405L27.7563 20.9452C27.7382 20.9471 27.7209 20.9477 27.7029 20.9477C27.396 20.9477 27.134 20.713 27.1064 20.4016C27.0776 20.0717 27.3216 19.7814 27.6513 19.7526L28.8454 19.6478C29.1859 19.6197 29.4657 19.8634 29.4951 20.1915ZM25.3675 21.1543L19.3955 21.6757C19.3781 21.6776 19.3607 21.6782 19.3428 21.6782C19.0358 21.6782 18.7733 21.4429 18.7464 21.1315C18.7176 20.8022 18.9616 20.5118 19.2912 20.4831L25.2632 19.9615C25.5905 19.934 25.8836 20.1765 25.9124 20.5058C25.9412 20.8352 25.6978 21.1255 25.3675 21.1543ZM15.8133 21.9889L12.8271 22.2499C12.8096 22.2517 12.7922 22.2523 12.7742 22.2523C12.4674 22.2523 12.2048 22.017 12.1779 21.7056C12.1491 21.3764 12.3925 21.0859 12.7228 21.0572L15.7091 20.7961C16.0393 20.7662 16.33 21.0117 16.3582 21.3404C16.387 21.6698 16.143 21.9607 15.8133 21.9889ZM23.2924 24.9419L29.2637 24.4197C29.594 24.3911 29.8373 24.1006 29.8086 23.7712C29.7793 23.442 29.489 23.1953 29.1595 23.2271L23.188 23.7492C22.8577 23.7778 22.6144 24.0683 22.6431 24.3975C22.6707 24.7089 22.932 24.9443 23.2395 24.9443C23.2569 24.9443 23.275 24.9437 23.2924 24.9419ZM19.7095 25.2551L17.3208 25.4634C17.3035 25.4652 17.2861 25.4657 17.2681 25.4657C16.9611 25.4657 16.6993 25.2305 16.6717 24.9191C16.643 24.5898 16.8868 24.2994 17.2165 24.2707L19.6052 24.0617C19.9374 24.0329 20.2257 24.2773 20.2544 24.6066C20.2832 24.9353 20.0392 25.2263 19.7095 25.2551ZM13.141 25.8292L14.9321 25.6723C15.2624 25.6436 15.5058 25.3532 15.477 25.0239C15.4482 24.6945 15.1509 24.4503 14.8278 24.4796L13.0368 24.636C12.7065 24.6646 12.4632 24.9557 12.4919 25.2843C12.5189 25.5964 12.7808 25.831 13.0883 25.831C13.1057 25.831 13.1231 25.8305 13.141 25.8292Z" fill="white"/>
<path fill-rule="evenodd" clip-rule="evenodd" d="M39.2521 26.7696C39.4599 26.7696 39.6363 26.8439 39.7817 26.9926C39.9272 27.1413 40.0001 27.3218 40 27.5342V32.1221C40 32.3345 39.9272 32.5151 39.7819 32.6638C39.6365 32.8125 39.4601 32.8868 39.2523 32.8868H31.7757C31.5681 32.8868 31.3915 32.8124 31.2461 32.6638C31.1007 32.5151 31.028 32.3345 31.028 32.1221V27.5343C31.028 27.3217 31.1007 27.1411 31.2461 26.9926C31.3915 26.8439 31.5681 26.7696 31.7757 26.7696H32.0249V25.2402C32.0249 24.2631 32.3675 23.4242 33.0529 22.7232C33.7382 22.0223 34.5585 21.6718 35.514 21.6718C36.4695 21.6718 37.2897 22.0223 37.975 22.7233C38.6604 23.4242 39.003 24.2631 39.003 25.2402V26.7696H39.2521ZM33.5202 26.7696H37.5077V25.2402C37.5077 24.6774 37.313 24.1967 36.9237 23.7986C36.5343 23.4003 36.0645 23.2012 35.5141 23.2012C34.9637 23.2012 34.4938 23.4003 34.1044 23.7986C33.715 24.1968 33.5202 24.6774 33.5202 25.2402V26.7696Z" fill="white"/>
</svg>
