<svg width="40" height="40" viewBox="0 0 40 40" fill="none" xmlns="http://www.w3.org/2000/svg">
<path fill-rule="evenodd" clip-rule="evenodd" d="M39.4899 22.2229L38.8701 21.3968C38.2008 20.4895 38.1843 19.2665 38.8454 18.3593L39.4486 17.525C40.3741 16.2453 39.9444 14.4633 38.5314 13.7261L37.6058 13.2403C36.5976 12.7138 36.0523 11.6121 36.2424 10.5106L36.4159 9.49809C36.6803 7.95103 35.5069 6.52546 33.9038 6.46066L32.8625 6.42016C31.7221 6.37158 30.7388 5.61829 30.4248 4.54101L30.1355 3.55284C29.6893 2.04628 28.0035 1.2687 26.5326 1.88428L25.574 2.28928C24.5245 2.73476 23.3098 2.46746 22.5413 1.63319L21.8471 0.871806C20.7729 -0.302665 18.9053 -0.286465 17.8558 0.896105L17.1699 1.66559C16.4179 2.50796 15.2031 2.79146 14.1538 2.36218L13.1869 1.97338C11.7077 1.37399 10.0302 2.18398 9.60873 3.69864L9.33603 4.68681C9.03854 5.76409 8.06343 6.53356 6.92305 6.59836L5.88184 6.65506C4.28696 6.74416 3.13006 8.18593 3.41929 9.72489L3.60935 10.7293C3.81594 11.8308 3.2788 12.9324 2.28718 13.4751L1.36991 13.9691C-0.0266358 14.7305 -0.431553 16.5206 0.510499 17.7841L1.13027 18.6104C1.79963 19.5175 1.81615 20.7406 1.15506 21.6478L0.551816 22.4821C-0.373708 23.7619 0.0560001 25.5438 1.46908 26.2809L2.3946 26.7669C3.40276 27.2934 3.94816 28.3949 3.7581 29.4965L3.58456 30.509C3.32013 32.056 4.49355 33.4816 6.09669 33.5464L7.13791 33.5869C8.27829 33.6355 9.26165 34.3888 9.57568 35.466L9.8649 36.4543C10.3111 37.9608 11.9969 38.7384 13.4679 38.1228L14.4264 37.7178C15.4759 37.2723 16.6906 37.5396 17.4591 38.3739L18.1533 39.1353C19.2193 40.3016 21.0869 40.2854 22.1364 39.1029L22.8223 38.3334C23.5743 37.491 24.789 37.2075 25.8385 37.6368L26.8053 38.0256C28.2845 38.625 29.962 37.815 30.3834 36.3004L30.6561 35.3121C30.9536 34.2349 31.9288 33.4654 33.0691 33.4006L34.1103 33.3439C35.7051 33.2548 36.8621 31.813 36.5729 30.2741L36.3828 29.2698C36.1763 28.1681 36.7134 27.0665 37.705 26.5239L38.6223 26.0298C40.027 25.2765 40.432 23.4865 39.4899 22.2229ZM21.0655 26.6454C20.3136 27.5364 19.3385 28.1358 18.2064 28.4435C17.7105 28.5731 17.4874 28.8323 17.5123 29.3345C17.5288 29.6641 17.5233 29.9975 17.5178 30.3296C17.515 30.4951 17.5123 30.6605 17.5123 30.8249C17.5123 31.2704 17.2809 31.5053 16.8346 31.5134C16.2892 31.5295 15.7438 31.5295 15.1984 31.5134C14.7191 31.5053 14.496 31.238 14.4878 30.7844C14.4795 30.4199 14.4795 30.0554 14.4795 29.699C14.4713 28.8971 14.4464 28.8648 13.6614 28.7433C12.6533 28.5893 11.6698 28.3625 10.7526 27.9251C10.0336 27.5849 9.95928 27.4068 10.1659 26.6615C10.3229 26.1108 10.4716 25.5519 10.6534 25.0093C10.86 24.3774 11.0335 24.2964 11.6285 24.5961C12.645 25.1145 13.7275 25.4061 14.8596 25.5438C15.5868 25.6329 16.3058 25.56 16.9834 25.2684C18.2476 24.7258 18.446 23.292 17.38 22.4335C17.0164 22.1419 16.6033 21.9231 16.1735 21.7369C15.0661 21.259 13.9093 20.8945 12.868 20.2789C11.174 19.2826 10.0998 17.9219 10.2237 15.8969C10.3642 13.6128 11.6864 12.1872 13.8184 11.4258C14.7026 11.11 14.7026 11.1262 14.7109 10.219V9.30369C14.7274 8.62331 14.843 8.50181 15.5373 8.48561C15.6805 8.48021 15.8236 8.48201 15.9669 8.48381C16.0385 8.48471 16.1101 8.48561 16.1818 8.48561C17.6526 8.48561 17.6526 8.48561 17.661 9.92738C17.6693 10.948 17.661 10.9561 18.7021 11.11C19.4955 11.2314 20.2558 11.4663 20.9911 11.7822C21.3961 11.9604 21.5531 12.2358 21.4291 12.657C21.2474 13.2808 21.0739 13.9125 20.8673 14.528C20.6771 15.1113 20.4871 15.2004 19.9086 14.925C18.76 14.3823 17.5535 14.1555 16.2809 14.2203C15.9504 14.2365 15.6199 14.2851 15.3141 14.4146C14.215 14.8845 14.0333 16.0751 14.9753 16.8041C15.4463 17.1768 15.9918 17.444 16.5536 17.6708C17.5288 18.0676 18.5039 18.4403 19.4294 18.9425C22.3464 20.5543 23.1398 24.1749 21.0655 26.6454ZM30.8911 14.2534C30.892 14.2524 30.893 14.2516 30.8938 14.2506L30.8995 14.2451C30.9006 14.2439 30.9019 14.2426 30.9033 14.2414C30.905 14.2398 30.9068 14.2381 30.9085 14.2364C30.9095 14.2355 30.9105 14.2345 30.9115 14.2336C31.0959 14.0603 31.3469 13.9535 31.6234 13.9535C31.9066 13.9535 32.163 14.0655 32.3486 14.2463L34.3989 16.2439C34.7994 16.6339 34.7994 17.2663 34.3989 17.6564C34.1988 17.8515 33.9364 17.949 33.674 17.949C33.4115 17.949 33.1491 17.8515 32.949 17.6564L32.7181 17.4315C32.6925 17.4065 32.6486 17.4243 32.6486 17.4595V21.3659C32.6486 21.9258 32.1784 22.3976 31.6036 22.3871C31.0465 22.3768 30.5981 21.9336 30.5981 21.3884V17.4958C30.5981 17.4603 30.554 17.4428 30.5285 17.4681L30.3461 17.6493C30.1454 17.8489 29.8798 17.949 29.6138 17.949C29.3481 17.949 29.0821 17.849 28.8806 17.6484C28.488 17.2573 28.5045 16.6259 28.8975 16.2353L30.8911 14.2534ZM26.8754 26.6769C26.8763 26.6779 26.8771 26.6786 26.878 26.6796L26.8838 26.6851C26.8849 26.6864 26.8861 26.6876 26.8875 26.6889C26.8893 26.6905 26.891 26.6921 26.8928 26.6939C26.8938 26.6948 26.8948 26.6958 26.8958 26.6966C27.0801 26.87 27.3311 26.9768 27.6076 26.9768C27.8909 26.9768 28.1473 26.8648 28.3329 26.684L30.3831 24.6864C30.7836 24.2964 30.7836 23.664 30.3831 23.2739C30.183 23.0788 29.9206 22.9813 29.6583 22.9813C29.3958 22.9813 29.1334 23.0788 28.9333 23.2739L28.7024 23.4988C28.6768 23.5238 28.6329 23.506 28.6329 23.4708V19.5644C28.6329 19.0045 28.1626 18.5326 27.5879 18.5431C27.0308 18.5535 26.5824 18.9966 26.5824 19.5419V23.4345C26.5824 23.47 26.5383 23.4875 26.5128 23.4621L26.3304 23.281C26.1296 23.0814 25.8639 22.9813 25.598 22.9813C25.3324 22.9813 25.0664 23.0813 24.8648 23.2819C24.4723 23.673 24.4888 24.3044 24.8818 24.695L26.8754 26.6769Z" fill="white"/>
</svg>
