<svg width="12" height="19" viewBox="0 0 12 19" fill="none" xmlns="http://www.w3.org/2000/svg">
<path d="M11.7799 10.0304L3.18533 18.7761C3.03861 18.9254 2.86486 19 2.66409 19C2.46332 19 2.28958 18.9254 2.14286 18.7761L0.220077 16.8195C0.0733591 16.6702 0 16.4934 0 16.2891C0 16.0848 0.0733591 15.908 0.220077 15.7587L6.37066 9.5L0.220077 3.24132C0.0733591 3.09202 0 2.91522 0 2.71092C0 2.50662 0.0733591 2.32982 0.220077 2.18052L2.14286 0.223945C2.28958 0.0746485 2.46332 0 2.66409 0C2.86486 0 3.03861 0.0746485 3.18533 0.223945L11.7799 8.9696C11.9266 9.1189 12 9.2957 12 9.5C12 9.7043 11.9266 9.8811 11.7799 10.0304Z" fill="#093C8A"/>
</svg>
