<svg width="28" height="40" viewBox="0 0 28 40" fill="none" xmlns="http://www.w3.org/2000/svg">
<path fill-rule="evenodd" clip-rule="evenodd" d="M0 14.376C0 6.44906 6.28039 0 14 0C21.7196 0 28 6.44906 28 14.376C28 16.8894 27.2776 19.7988 25.8533 23.0235C24.7271 25.5728 23.1598 28.3303 21.1946 31.2194C17.8588 36.1244 14.4736 39.7735 14.4399 39.8098C14.2035 40.0634 13.7964 40.0634 13.5601 39.8098C13.5264 39.7735 10.1414 36.1243 6.80535 31.2194C4.84016 28.3303 3.27288 25.5728 2.1468 23.0235C0.722319 19.7988 0 16.8894 0 14.376ZM20.5806 8.18184L19.6611 9.50479C21.2544 11.0631 22.2476 13.2533 22.2476 15.6759C22.2476 20.3943 18.4796 24.2333 13.8481 24.2333C9.21641 24.2333 5.4483 20.3943 5.4483 15.6759C5.4483 13.3136 6.39264 11.1718 7.91689 9.62212L6.97546 8.2675C6.80851 8.0271 6.86426 7.69484 7.09991 7.52476L8.48656 6.52429C8.72226 6.35456 9.04836 6.41104 9.21535 6.65126L10.1491 7.9941C10.8861 7.6243 11.6841 7.36105 12.523 7.22509V6.6738C12.523 6.32079 12.2396 6.0319 11.8929 6.0319H11.5453C11.1985 6.0319 10.9153 5.74306 10.9153 5.39036V3.43813C10.9153 3.0853 11.1985 2.7961 11.5453 2.7961H16.1509C16.4973 2.7961 16.7809 3.0853 16.7809 3.43813V5.39041C16.7809 5.7431 16.4973 6.03195 16.1509 6.03195H15.803C15.4566 6.03195 15.1729 6.32084 15.1729 6.67385V7.22514C15.956 7.3518 16.7028 7.58969 17.3985 7.92173L18.3405 6.56581C18.5076 6.32591 18.8338 6.26911 19.0694 6.43884L20.456 7.43926C20.6919 7.6093 20.7476 7.94158 20.5806 8.18184ZM7.46441 15.6759C7.46441 19.2619 10.3282 22.1796 13.8483 22.1796C17.3683 22.1796 20.2319 19.2619 20.2319 15.6759C20.2319 12.0897 17.3683 9.17214 13.8483 9.17214C10.3282 9.17214 7.46441 12.0897 7.46441 15.6759ZM16.4726 14.3736L13.8386 17.7114C13.6821 17.8708 13.4771 17.9506 13.2721 17.9506C13.0676 17.9506 12.8624 17.8708 12.7063 17.7114L11.4573 16.4364C11.1447 16.1173 11.1447 15.5993 11.4573 15.2806C11.7699 14.9613 12.2765 14.9613 12.5896 15.2806L13.2721 15.9774L15.3408 13.2176C15.6526 12.899 16.1605 12.899 16.4726 13.2176C16.7855 13.5368 16.7855 14.0545 16.4726 14.3736Z" fill="white"/>
</svg>
