<svg width="40" height="26" viewBox="0 0 40 26" fill="none" xmlns="http://www.w3.org/2000/svg">
<path d="M33.8228 9.21216H28.6783C27.6151 9.21127 26.5699 9.56818 25.6448 10.2481C24.8574 10.8275 24.1763 11.6217 23.6484 12.5759C23.2969 12.4963 22.9407 12.4565 22.5838 12.4568H17.4346C17.0777 12.4564 16.7214 12.4963 16.3699 12.5759C15.8422 11.6216 15.1611 10.8274 14.3736 10.2481C13.4485 9.56818 12.4033 9.21127 11.3401 9.21216H6.1955C2.77696 9.22198 0.00757228 12.8146 0 17.2494V21.7801C0.00252409 22.2546 0.299679 22.6374 0.665443 22.6374H11.2208V25.0188C11.2208 25.4955 11.5187 25.8821 11.8862 25.8821H28.1138C28.4814 25.8821 28.7792 25.4955 28.7792 25.0188V22.6374H39.3346C39.702 22.6374 40 22.2509 40 21.7741V17.2494C39.9925 12.8239 37.2342 9.23508 33.8228 9.21216Z" fill="white"/>
<path d="M11.5682 1.19235C10.8088 0.428453 9.77579 -0.000793271 8.69861 1.6302e-06C6.45748 -0.00198562 4.63905 1.81317 4.63706 4.05439C4.63507 6.29552 6.45023 8.11395 8.69145 8.11597C10.9327 8.11791 12.751 6.30277 12.753 4.06155C12.7539 2.98595 12.3278 1.95397 11.5682 1.19235Z" fill="white"/>
<path d="M31.3071 1.6302e-06C29.066 -0.00198562 27.2475 1.81317 27.2456 4.05439C27.2446 5.12999 27.6707 6.16207 28.4304 6.92359C29.1898 7.68749 30.2228 8.11678 31.2999 8.11597C33.5411 8.11791 35.3595 6.30277 35.3615 4.06155C35.3635 1.82033 33.5482 0.00198888 31.3071 1.6302e-06Z" fill="white"/>
<path d="M23.1534 4.66184C22.3923 3.90336 21.3614 3.47778 20.287 3.47827C19.2087 3.47748 18.1747 3.90714 17.4146 4.67179C15.8326 6.25927 15.837 8.82862 17.4245 10.4106C19.012 11.9927 21.5813 11.9881 23.1633 10.4007C24.7454 8.8132 24.7408 6.24385 23.1534 4.66184Z" fill="white"/>
</svg>
