<svg width="39" height="40" viewBox="0 0 39 40" fill="none" xmlns="http://www.w3.org/2000/svg">
<path fill-rule="evenodd" clip-rule="evenodd" d="M38.1124 22.2229L37.5143 21.3968C36.8683 20.4895 36.8523 19.2665 37.4903 18.3593L38.0725 17.525C38.9658 16.2453 38.551 14.4633 37.1873 13.7261L36.294 13.2403C35.321 12.7138 34.7946 11.6121 34.978 10.5106L35.1455 9.49809C35.4008 7.95103 34.2683 6.52546 32.721 6.46066L31.7161 6.42016C30.6155 6.37158 29.6665 5.61829 29.3634 4.54101L29.0843 3.55284C28.6536 2.04628 27.0266 1.2687 25.607 1.88428L24.6819 2.28928C23.669 2.73476 22.4966 2.46746 21.755 1.63319L21.085 0.871807C20.0483 -0.302665 18.2458 -0.286465 17.2329 0.896105L16.571 1.66559C15.8453 2.50796 14.6729 2.79146 13.66 2.36218L12.7269 1.97338C11.2993 1.37399 9.68028 2.18398 9.27354 3.69864L9.01035 4.68681C8.72324 5.76409 7.78215 6.53356 6.68155 6.59836L5.67666 6.65506C4.13743 6.74417 3.02088 8.18593 3.30001 9.72489L3.48344 10.7293C3.68283 11.8308 3.16443 12.9324 2.20739 13.4751L1.32213 13.9691C-0.0257065 14.7305 -0.416499 16.5206 0.49269 17.7841L1.09084 18.6104C1.73684 19.5175 1.75279 20.7406 1.11477 21.6478L0.532567 22.4821C-0.360671 23.7619 0.054047 25.5438 1.41783 26.2809L2.31106 26.7669C3.28406 27.2934 3.81043 28.3949 3.627 29.4965L3.45951 30.509C3.2043 32.056 4.3368 33.4816 5.88401 33.5464L6.88891 33.5869C7.98952 33.6355 8.93858 34.3888 9.24164 35.466L9.52078 36.4543C9.95144 37.9608 11.5784 38.7384 12.998 38.1228L13.9231 37.7178C14.936 37.2723 16.1084 37.5396 16.8501 38.3739L17.52 39.1353C18.5489 40.3016 20.3513 40.2854 21.3641 39.1029L22.0261 38.3334C22.7519 37.491 23.9243 37.2075 24.9371 37.6368L25.8703 38.0256C27.2978 38.625 28.9168 37.815 29.3235 36.3004L29.5868 35.3121C29.8739 34.2349 30.8149 33.4654 31.9155 33.4006L32.9204 33.3439C34.4596 33.2548 35.5763 31.813 35.297 30.2741L35.1136 29.2698C34.9143 28.1681 35.4326 27.0665 36.3896 26.5239L37.275 26.0298C38.6308 25.2765 39.0215 23.4865 38.1124 22.2229ZM27.7728 26.6454C27.047 27.5364 26.1059 28.1358 25.0133 28.4435C24.5348 28.5731 24.3195 28.8324 24.3434 29.3345C24.3594 29.6641 24.354 29.9974 24.3486 30.3296C24.346 30.4951 24.3434 30.6605 24.3434 30.8249C24.3434 31.2704 24.1201 31.5053 23.6894 31.5134C23.163 31.5295 22.6366 31.5295 22.1103 31.5134C21.6478 31.5053 21.4324 31.238 21.4244 30.7844C21.4164 30.4199 21.4164 30.0554 21.4164 29.699C21.4085 28.8971 21.3845 28.8648 20.6269 28.7433C19.6539 28.5894 18.7048 28.3625 17.8195 27.9251C17.1258 27.585 17.0539 27.4068 17.2533 26.6616C17.4049 26.1108 17.5484 25.5519 17.7239 25.0093C17.9233 24.3774 18.0908 24.2964 18.6649 24.5961C19.6459 25.1145 20.6906 25.4061 21.7833 25.5438C22.4851 25.6329 23.179 25.56 23.833 25.2684C25.0531 24.7258 25.2446 23.292 24.2158 22.4335C23.8649 22.1419 23.4661 21.9231 23.0514 21.7369C21.9826 21.259 20.8661 20.8945 19.8613 20.2789C18.2263 19.2826 17.1895 17.9219 17.3091 15.8969C17.4448 13.6128 18.7208 12.1872 20.7784 11.4258C21.6318 11.11 21.6318 11.1262 21.6398 10.219V9.3037C21.6556 8.62332 21.7674 8.50182 22.4373 8.48562C22.5755 8.48022 22.7138 8.48202 22.852 8.48382C22.9211 8.48472 22.9903 8.48562 23.0594 8.48562C24.479 8.48562 24.479 8.48562 24.4869 9.92738C24.4949 10.948 24.4869 10.9561 25.4919 11.11C26.2575 11.2315 26.9911 11.4663 27.701 11.7822C28.0918 11.9604 28.2434 12.2358 28.1236 12.657C27.9483 13.2808 27.7808 13.9125 27.5814 14.5281C27.3979 15.1113 27.2145 15.2004 26.6563 14.925C25.5476 14.3823 24.3833 14.1555 23.155 14.2203C22.836 14.2365 22.517 14.2851 22.2219 14.4146C21.1613 14.8845 20.9858 16.0751 21.895 16.8041C22.3495 17.1768 22.8759 17.444 23.4183 17.6708C24.3594 18.0676 25.3004 18.4403 26.1936 18.9425C29.009 20.5544 29.7746 24.1749 27.7728 26.6454ZM14.1875 18.6046H8.1385C8.08523 18.6046 8.03208 18.6073 7.97907 18.6125C7.92605 18.6178 7.87341 18.6255 7.82115 18.6359C7.7689 18.6463 7.71729 18.6593 7.6663 18.6748C7.61533 18.6902 7.56523 18.7081 7.516 18.7285C7.46679 18.7488 7.41869 18.7716 7.3717 18.7968C7.32472 18.8218 7.27908 18.8492 7.23478 18.8788C7.19048 18.9084 7.14774 18.9401 7.10656 18.9739C7.06538 19.0077 7.02595 19.0435 6.98828 19.0811C6.95061 19.1188 6.91488 19.1582 6.88108 19.1994C6.84728 19.2405 6.81558 19.2833 6.78598 19.3276C6.75639 19.3719 6.72903 19.4175 6.70392 19.4645C6.6788 19.5115 6.65605 19.5596 6.63566 19.6089C6.61528 19.658 6.59736 19.7081 6.58189 19.7591C6.56642 19.8101 6.55349 19.8618 6.5431 19.914C6.53271 19.9663 6.5249 20.0189 6.51968 20.0719C6.51445 20.1249 6.51184 20.1781 6.51184 20.2314V20.2339C6.51184 20.2871 6.51445 20.3403 6.51968 20.3933C6.5249 20.4463 6.53271 20.4989 6.5431 20.5511C6.55349 20.6034 6.56642 20.655 6.58189 20.706C6.59736 20.757 6.61528 20.8071 6.63566 20.8563C6.65605 20.9055 6.6788 20.9536 6.70392 21.0006C6.72903 21.0476 6.75639 21.0933 6.78598 21.1375C6.81558 21.1818 6.84728 21.2246 6.88108 21.2658C6.91488 21.3069 6.95061 21.3463 6.98828 21.384C7.02595 21.4217 7.06538 21.4574 7.10656 21.4913C7.14774 21.525 7.19048 21.5567 7.23478 21.5864C7.27908 21.616 7.32472 21.6433 7.3717 21.6684C7.41869 21.6935 7.46679 21.7163 7.516 21.7366C7.56523 21.757 7.61533 21.775 7.6663 21.7904C7.71729 21.8059 7.7689 21.8188 7.82115 21.8293C7.87341 21.8396 7.92605 21.8474 7.97907 21.8526C8.03208 21.8579 8.08523 21.8605 8.1385 21.8605H14.1875C14.2408 21.8605 14.2939 21.8579 14.347 21.8526C14.4 21.8474 14.4526 21.8396 14.5049 21.8293C14.5571 21.8188 14.6088 21.8059 14.6598 21.7904C14.7107 21.775 14.7608 21.757 14.81 21.7366C14.8593 21.7163 14.9074 21.6935 14.9544 21.6684C15.0013 21.6433 15.0469 21.616 15.0913 21.5864C15.1355 21.5567 15.1783 21.525 15.2195 21.4913C15.2607 21.4574 15.3001 21.4217 15.3378 21.384C15.3754 21.3463 15.4112 21.3069 15.445 21.2658C15.4788 21.2246 15.5104 21.1818 15.54 21.1375C15.5696 21.0933 15.597 21.0476 15.6221 21.0006C15.6472 20.9536 15.67 20.9055 15.6904 20.8563C15.7107 20.8071 15.7286 20.757 15.7441 20.706C15.7596 20.655 15.7725 20.6034 15.7829 20.5511C15.7933 20.4989 15.8011 20.4463 15.8064 20.3933C15.8115 20.3403 15.8141 20.2871 15.8141 20.2339V20.2314C15.8141 20.1781 15.8115 20.1249 15.8064 20.0719C15.8011 20.0189 15.7933 19.9663 15.7829 19.914C15.7725 19.8618 15.7596 19.8101 15.7441 19.7591C15.7286 19.7081 15.7107 19.658 15.6904 19.6089C15.67 19.5596 15.6472 19.5115 15.6221 19.4645C15.597 19.4175 15.5696 19.3719 15.54 19.3276C15.5104 19.2833 15.4788 19.2405 15.445 19.1994C15.4112 19.1582 15.3754 19.1188 15.3378 19.0811C15.3001 19.0435 15.2607 19.0077 15.2195 18.9739C15.1783 18.9401 15.1355 18.9084 15.0913 18.8788C15.0469 18.8492 15.0013 18.8218 14.9544 18.7968C14.9074 18.7716 14.8593 18.7488 14.81 18.7285C14.7608 18.7081 14.7107 18.6902 14.6598 18.6748C14.6088 18.6593 14.5571 18.6463 14.5049 18.6359C14.4526 18.6255 14.4 18.6178 14.347 18.6125C14.2939 18.6073 14.2408 18.6046 14.1875 18.6046Z" fill="white"/>
</svg>
