<svg width="32" height="40" viewBox="0 0 32 40" fill="none" xmlns="http://www.w3.org/2000/svg">
<path fill-rule="evenodd" clip-rule="evenodd" d="M24.6095 35.472H2.09975C0.940717 35.472 0 34.4821 0 33.2624V10.1211H0.730346C0.789885 10.1253 0.853394 10.1295 0.912932 10.1295H6.66441C8.29577 10.1295 9.62151 8.73434 9.62151 7.01755V0.964914C9.62151 0.885547 9.6175 0.806182 9.60961 0.730995V0H24.6095C25.7685 0 26.7092 0.989976 26.7092 2.20969V33.2624C26.7092 34.4821 25.7685 35.472 24.6095 35.472ZM21.5076 16.25H6.8253C6.27754 16.25 5.83297 15.69 5.83297 15C5.83297 14.31 6.27754 13.75 6.8253 13.75H21.5076C22.0554 13.75 22.5 14.31 22.5 15C22.5 15.69 22.0554 16.25 21.5076 16.25ZM6.82514 21.25H21.5075C22.0552 21.25 22.4997 20.69 22.4997 20C22.4997 19.31 22.0552 18.75 21.5075 18.75H6.82514C6.27739 18.75 5.83282 19.31 5.83282 20C5.83282 20.69 6.27739 21.25 6.82514 21.25ZM6.82514 26.2499H21.5075C22.0552 26.2499 22.4997 25.6899 22.4997 24.9999C22.4997 24.3099 22.0552 23.7499 21.5075 23.7499H6.82514C6.27739 23.7499 5.83282 24.3099 5.83282 24.9999C5.83282 25.6899 6.27739 26.2499 6.82514 26.2499ZM14.4789 31.25H6.7708C6.48324 31.25 6.24985 30.69 6.24985 30C6.24985 29.31 6.48324 28.75 6.7708 28.75H14.4789C14.7665 28.75 14.9999 29.31 14.9999 30C14.9999 30.69 14.7665 31.25 14.4789 31.25Z" fill="white"/>
<path d="M29.154 4.52802H28.0426V33.2624C28.0426 35.1713 26.5661 36.7251 24.7521 36.7251H13.4913H4.53659V37.7904C4.53659 39.0101 5.47731 40 6.63634 40H17.8932H29.1501C30.3091 40 31.2497 39.0101 31.2497 37.7904V6.7377C31.2498 5.51799 30.3131 4.52802 29.154 4.52802Z" fill="white"/>
<path d="M1.05148 8.87636H6.80295C6.80692 8.87636 6.81486 8.87636 6.81883 8.87636C7.77939 8.86801 8.55737 8.0493 8.56531 7.03844C8.56531 7.03426 8.56531 7.0259 8.56531 7.02173V0.964913C8.56531 0.40518 8.12868 0.0334167 7.67623 0.0334167C7.45792 0.0334167 7.23961 0.116959 7.05702 0.309107L0.424332 7.28906C-0.131367 7.87386 0.261591 8.87636 1.05148 8.87636Z" fill="white"/>
</svg>
