<svg width="40" height="40" viewBox="0 0 40 40" fill="none" xmlns="http://www.w3.org/2000/svg">
<path d="M18.7287 35.9002C17.4365 35.8988 16.3054 35.0328 15.9671 33.7856C15.9556 33.7423 15.9556 33.6994 15.9465 33.6558L8.0786 29.4043C7.8655 29.2822 7.62415 29.2181 7.37861 29.2188C7.28689 29.2188 7.19516 29.2271 7.10483 29.2442C6.98101 29.2658 6.86069 29.3049 6.74769 29.36C6.49064 29.4821 6.2765 29.6795 6.1342 29.9264C6.00969 30.144 5.94377 30.3899 5.94272 30.6407C5.93923 31.1516 6.21023 31.6253 6.65282 31.8806L19.6749 39.6728C20.0161 39.8863 20.4104 39.9996 20.8129 40H30.8772C31.146 39.9996 31.4125 39.9487 31.6629 39.85L34.2857 38.8142V31.1192L31.7319 29.5902C31.3995 29.391 31.019 29.2857 30.6313 29.2857H27.8934C27.4574 29.2857 27.0232 29.3429 26.6022 29.4556L18.3573 31.6615C17.7786 31.822 17.3598 32.3235 17.305 32.9213V33.155C17.3099 33.2443 17.3235 33.3329 17.3465 33.4194C17.5164 34.0419 18.0831 34.4733 18.7287 34.4716C18.8156 34.4643 19.2358 34.3785 19.5616 34.3035L26.9587 32.3242L27.3269 33.7043L19.9058 35.6899C19.5201 35.7934 19.1263 35.8639 18.7287 35.9002Z" fill="white"/>
<path d="M35.7141 28.5715H39.9998V40H35.7141V28.5715Z" fill="white"/>
<path d="M0 0H4.28572V12.8571H0V0Z" fill="white"/>
<path d="M8.15133 11.2399C9.12615 11.8872 10.2593 12.2566 11.4284 12.3085V8.85709C10.9007 8.66457 10.4075 8.38765 9.96843 8.03713L9.54991 7.69777L10.4497 6.58798L10.8641 6.9235C12.2794 8.05492 14.2974 8.02492 15.6785 6.85235L16.1783 6.42371L20.3925 10.6379C20.9534 11.196 21.8602 11.1942 22.4186 10.6337C22.9766 10.0729 22.9749 9.16611 22.414 8.60807L17.3736 3.56204L18.3832 2.55234L20.117 4.28574H26.0112L23.1897 1.46416C22.2542 0.523527 20.981 -0.00381571 19.6542 2.07877e-05H10.674C10.3416 2.07877e-05 10.0138 0.077797 9.71627 0.226374L8.11471 1.02715C7.57935 1.29396 6.98574 1.42266 6.38759 1.40139L5.71411 1.37732V10.7143H7.35682L8.15133 11.2399Z" fill="white"/>
<path d="M12.8571 9.15627V21.4285H39.9999V5.71423H21.5457L22.9742 7.14281H34.9999V7.85709C34.9999 9.43493 36.2792 10.7142 37.857 10.7142H38.5713V16.4285H37.857C36.2792 16.4285 34.9999 17.7078 34.9999 19.2856V20H17.8571V19.2856C17.8571 17.7078 16.5778 16.4285 14.9999 16.4285H14.2856V10.7142H14.9999C15.9053 10.7135 16.7567 10.2828 17.2934 9.55352L16.0748 8.33491C15.1209 8.95328 13.9906 9.24207 12.8571 9.15627Z" fill="white"/>
<path d="M21.4085 12.4781C20.6524 12.4798 19.9266 12.1823 19.3898 11.6501L18.3121 10.5713C17.6581 11.3742 16.735 11.9117 15.7141 12.0836V15.0593C17.5113 15.3666 18.919 16.7742 19.2262 18.5715H33.6305C33.9377 16.7742 35.3455 15.3666 37.1426 15.0593V12.0836C35.3455 11.7763 33.9377 10.3687 33.6305 8.57147H24.0654C24.4069 9.41376 24.3197 10.3694 23.8314 11.1356C25.1414 9.74823 27.3111 9.63592 28.7575 10.881C30.2042 12.1262 30.4162 14.2882 29.2391 15.7904C28.0624 17.2929 25.9122 17.6043 24.357 16.4977C22.8022 15.3914 22.392 13.2579 23.4254 11.6536C22.8873 12.1823 22.1629 12.4784 21.4085 12.4781Z" fill="white"/>
<path d="M28.5716 13.5715C28.5716 14.7549 27.6121 15.7144 26.4287 15.7144C25.2453 15.7144 24.2859 14.7549 24.2859 13.5715C24.2859 12.3881 25.2453 11.4286 26.4287 11.4286C27.6121 11.4286 28.5716 12.3881 28.5716 13.5715Z" fill="white"/>
</svg>
