<svg width="31" height="40" viewBox="0 0 31 40" fill="none" xmlns="http://www.w3.org/2000/svg">
<path fill-rule="evenodd" clip-rule="evenodd" d="M2.36777 40H27.7509C29.0579 40 30.1186 38.8838 30.1186 37.5084V2.49176C30.1186 1.11635 29.0579 0 27.7509 0H10.8363V0.824306C10.8452 0.909092 10.8497 0.998588 10.8497 1.08808V7.91334C10.8497 9.84929 9.35474 11.4225 7.51511 11.4225H1.02947C0.962329 11.4225 0.890714 11.4178 0.823575 11.4131H0V37.5084C0 38.8838 1.0608 40 2.36777 40ZM7.51505 10.0094H1.02939C0.13868 10.0094 -0.304439 8.87896 0.322194 8.21953L7.80155 0.348571C8.00745 0.131896 8.25362 0.0376893 8.4998 0.0376893C9.01001 0.0376893 9.50236 0.456908 9.50236 1.08809V7.9369C9.49341 9.0768 8.61613 10 7.53295 10.0094H7.51505ZM28.1915 13.5396C28.1915 15.155 27.1555 16.5317 25.7139 17.0432V18.4951C25.7139 19.1794 25.1587 19.734 24.475 19.734C23.7906 19.734 23.2361 19.1794 23.2361 18.4951V17.0496C22.4105 16.7727 21.6319 16.224 20.9699 15.4361C20.5294 14.912 20.5973 14.131 21.1208 13.6906C21.6444 13.2503 22.426 13.318 22.8664 13.8416C23.374 14.446 23.9455 14.779 24.475 14.779C25.1577 14.779 25.7139 14.2229 25.7139 13.5401C25.7139 12.8567 25.1577 12.3012 24.475 12.3012C22.4255 12.3012 20.7584 10.6336 20.7584 8.5846C20.7584 6.96924 21.794 5.59244 23.2361 5.08093V3.62913C23.2361 2.94484 23.7906 2.39025 24.475 2.39025C25.1587 2.39025 25.7139 2.94484 25.7139 3.62913V5.07221C26.28 5.25997 26.9091 5.60405 27.5377 6.21236C28.0295 6.68806 28.042 7.47252 27.5664 7.9642C27.0906 8.45587 26.3066 8.46894 25.8145 7.99324C25.377 7.56931 24.9139 7.34525 24.475 7.34525C23.7916 7.34525 23.2361 7.90129 23.2361 8.58411C23.2361 9.26744 23.7916 9.82299 24.475 9.82299C26.5239 9.82299 28.1915 11.4906 28.1915 13.5396ZM3.9385 17.8605H12.2145C12.8323 17.8605 13.338 17.3329 13.338 16.6829C13.338 16.0328 12.8368 15.5052 12.219 15.5052H3.9385C3.32082 15.5052 2.81953 16.0328 2.81953 16.6829C2.81953 17.3329 3.32082 17.8605 3.9385 17.8605ZM20.4954 21.1435H3.93881C3.32113 21.1435 2.81983 21.671 2.81983 22.3211C2.81983 22.9711 3.32113 23.4986 3.93881 23.4986H20.4954C21.113 23.4986 21.6144 22.9711 21.6144 22.3211C21.6144 21.671 21.113 21.1435 20.4954 21.1435ZM3.93881 29.8811H20.4954C21.113 29.8811 21.6144 29.3536 21.6144 28.7036C21.6144 28.0535 21.113 27.526 20.4954 27.526H3.93881C3.32113 27.526 2.81983 28.0535 2.81983 28.7036C2.81983 29.3536 3.32113 29.8811 3.93881 29.8811ZM3.9385 36.6486H20.495C21.1127 36.6486 21.614 36.121 21.614 35.471C21.614 34.821 21.1127 34.2935 20.495 34.2935H3.9385C3.32082 34.2935 2.81953 34.821 2.81953 35.471C2.81953 36.121 3.32082 36.6486 3.9385 36.6486Z" fill="white"/>
</svg>
