<svg width="70" height="70" viewBox="0 0 70 70" fill="none" xmlns="http://www.w3.org/2000/svg">
<rect width="70" height="70" rx="12" fill="url(#paint0_linear)"/>
<path fill-rule="evenodd" clip-rule="evenodd" d="M22.3678 55H47.7509C49.0579 55 50.1186 53.8838 50.1186 52.5084V17.4918C50.1186 16.1163 49.0579 15 47.7509 15H30.8363V15.8243C30.8452 15.9091 30.8497 15.9986 30.8497 16.0881V22.9133C30.8497 24.8493 29.3547 26.4225 27.5151 26.4225H21.0295C20.9623 26.4225 20.8907 26.4178 20.8236 26.4131H20V52.5084C20 53.8838 21.0608 55 22.3678 55ZM27.5151 25.0094H21.0294C20.1387 25.0094 19.6956 23.879 20.3222 23.2195L27.8016 15.3486C28.0075 15.1319 28.2536 15.0377 28.4998 15.0377C29.01 15.0377 29.5024 15.4569 29.5024 16.0881V22.9369C29.4934 24.0768 28.6161 25 27.533 25.0094H27.5151ZM48.1915 28.5396C48.1915 30.155 47.1555 31.5317 45.7139 32.0432V33.4951C45.7139 34.1794 45.1587 34.734 44.475 34.734C43.7906 34.734 43.2361 34.1794 43.2361 33.4951V32.0496C42.4105 31.7727 41.6319 31.224 40.9699 30.4361C40.5294 29.912 40.5973 29.131 41.1208 28.6906C41.6444 28.2503 42.426 28.318 42.8664 28.8416C43.374 29.446 43.9455 29.779 44.475 29.779C45.1577 29.779 45.7139 29.2229 45.7139 28.5401C45.7139 27.8567 45.1577 27.3012 44.475 27.3012C42.4255 27.3012 40.7584 25.6336 40.7584 23.5846C40.7584 21.9692 41.794 20.5924 43.2361 20.0809V18.6291C43.2361 17.9448 43.7906 17.3902 44.475 17.3902C45.1587 17.3902 45.7139 17.9448 45.7139 18.6291V20.0722C46.28 20.26 46.9091 20.6041 47.5377 21.2124C48.0295 21.6881 48.042 22.4725 47.5664 22.9642C47.0906 23.4559 46.3066 23.4689 45.8145 22.9932C45.377 22.5693 44.9139 22.3453 44.475 22.3453C43.7916 22.3453 43.2361 22.9013 43.2361 23.5841C43.2361 24.2674 43.7916 24.823 44.475 24.823C46.5239 24.823 48.1915 26.4906 48.1915 28.5396ZM23.9385 32.8605H32.2145C32.8323 32.8605 33.338 32.3329 33.338 31.6829C33.338 31.0328 32.8368 30.5052 32.219 30.5052H23.9385C23.3208 30.5052 22.8195 31.0328 22.8195 31.6829C22.8195 32.3329 23.3208 32.8605 23.9385 32.8605ZM40.4954 36.1435H23.9388C23.3211 36.1435 22.8198 36.671 22.8198 37.3211C22.8198 37.9711 23.3211 38.4986 23.9388 38.4986H40.4954C41.113 38.4986 41.6144 37.9711 41.6144 37.3211C41.6144 36.671 41.113 36.1435 40.4954 36.1435ZM23.9388 44.8811H40.4954C41.113 44.8811 41.6144 44.3536 41.6144 43.7036C41.6144 43.0535 41.113 42.526 40.4954 42.526H23.9388C23.3211 42.526 22.8198 43.0535 22.8198 43.7036C22.8198 44.3536 23.3211 44.8811 23.9388 44.8811ZM23.9385 51.6486H40.495C41.1127 51.6486 41.614 51.121 41.614 50.471C41.614 49.821 41.1127 49.2935 40.495 49.2935H23.9385C23.3208 49.2935 22.8195 49.821 22.8195 50.471C22.8195 51.121 23.3208 51.6486 23.9385 51.6486Z" fill="url(#paint1_linear)"/>
<defs>
<linearGradient id="paint0_linear" x1="0" y1="0" x2="70" y2="70" gradientUnits="userSpaceOnUse">
<stop stop-color="white"/>
<stop offset="1" stop-color="#D8D8D8"/>
</linearGradient>
<linearGradient id="paint1_linear" x1="35.0593" y1="15" x2="35.0593" y2="55" gradientUnits="userSpaceOnUse">
<stop stop-color="#3D3F98"/>
<stop offset="1" stop-color="#452588"/>
</linearGradient>
</defs>
</svg>
