<svg width="44" height="44" viewBox="0 0 44 44" fill="none" xmlns="http://www.w3.org/2000/svg">
<path d="M35.8228 18.2122H30.6783C29.6151 18.2113 28.5699 18.5682 27.6448 19.2481C26.8574 19.8275 26.1763 20.6217 25.6484 21.5759C25.2969 21.4963 24.9407 21.4565 24.5838 21.4568H19.4346C19.0777 21.4564 18.7214 21.4963 18.3699 21.5759C17.8422 20.6216 17.1611 19.8274 16.3736 19.2481C15.4485 18.5682 14.4033 18.2113 13.3401 18.2122H8.1955C4.77696 18.222 2.00757 21.8146 2 26.2494V30.7801C2.00252 31.2546 2.29968 31.6374 2.66544 31.6374H13.2208V34.0188C13.2208 34.4955 13.5187 34.8821 13.8862 34.8821H30.1138C30.4814 34.8821 30.7792 34.4955 30.7792 34.0188V31.6374H41.3346C41.702 31.6374 42 31.2509 42 30.7741V26.2494C41.9925 21.8239 39.2342 18.2351 35.8228 18.2122Z" fill="#919191"/>
<path d="M13.5682 10.1924C12.8088 9.42845 11.7758 8.99921 10.6986 9C8.45751 8.99801 6.63907 10.8132 6.63709 13.0544C6.6351 15.2955 8.45025 17.1139 10.6915 17.116C12.9327 17.1179 14.751 15.3028 14.7531 13.0616C14.7539 11.9859 14.3279 10.954 13.5682 10.1924Z" fill="#919191"/>
<path d="M33.3071 9C31.066 8.99801 29.2475 10.8132 29.2455 13.0544C29.2446 14.13 29.6707 15.1621 30.4303 15.9236C31.1898 16.6875 32.2227 17.1168 33.2999 17.116C35.5411 17.1179 37.3595 15.3028 37.3615 13.0616C37.3635 10.8203 35.5482 9.00199 33.3071 9Z" fill="#919191"/>
<path d="M25.1534 13.6618C24.3923 12.9034 23.3614 12.4778 22.2869 12.4783C21.2087 12.4775 20.1747 12.9071 19.4145 13.6718C17.8325 15.2593 17.837 17.8286 19.4245 19.4106C21.012 20.9927 23.5813 20.9881 25.1633 19.4007C26.7453 17.8132 26.7408 15.2439 25.1534 13.6618Z" fill="#919191"/>
</svg>
