<svg width="40" height="36" viewBox="0 0 40 36" fill="none" xmlns="http://www.w3.org/2000/svg">
<path fill-rule="evenodd" clip-rule="evenodd" d="M27.831 30.9363H5.35731C3.88029 30.9363 2.67865 29.7602 2.67865 28.3147V7.86517C2.67865 6.41956 3.88029 5.24345 5.35731 5.24345H7.03146V6.55431C7.03146 7.2783 7.63107 7.86517 8.37079 7.86517C9.1105 7.86517 9.71011 7.2783 9.71011 6.55431V5.24345H15.7371V6.55431C15.7371 7.2783 16.3367 7.86517 17.0764 7.86517C17.8161 7.86517 18.4157 7.2783 18.4157 6.55431V5.24345H24.5096V6.55431C24.5096 7.2783 25.1093 7.86517 25.849 7.86517C26.5887 7.86517 27.1883 7.2783 27.1883 6.55431V5.24345H28.9294C30.4064 5.24345 31.6081 6.41956 31.6081 7.86517V24.1311C32.4253 23.771 33.3319 23.5705 34.2863 23.5705H34.2868V7.86517C34.2868 4.97394 31.8834 2.62172 28.9294 2.62172H27.1883V1.31086C27.1883 0.586873 26.5887 0 25.849 0C25.1093 0 24.5096 0.586873 24.5096 1.31086V2.62172H18.4157V1.31086C18.4157 0.586873 17.8161 0 17.0764 0C16.3367 0 15.7371 0.586873 15.7371 1.31086V2.62172H9.71011V1.31086C9.71011 0.586873 9.1105 0 8.37079 0C7.63107 0 7.03146 0.586873 7.03146 1.31086V2.62172H5.35731C2.40329 2.62172 0 4.97394 0 7.86517V28.3147C0 31.2059 2.40329 33.5581 5.35731 33.5581H28.8861C28.3499 32.788 27.9811 31.8974 27.831 30.9363Z" fill="white"/>
<path d="M2.44901 3.99487H32.2458V12.7839H2.44901V3.99487Z" fill="white"/>
<path fill-rule="evenodd" clip-rule="evenodd" d="M28.5711 29.9625C28.5711 26.8737 31.1295 24.3696 34.2855 24.3696C37.4414 24.3696 40 26.8736 40 29.9625C40 33.0513 37.4413 35.5557 34.2854 35.5557C31.1295 35.5557 28.5711 33.0512 28.5711 29.9625ZM34.6887 30.8202C34.6907 30.8052 34.6929 30.7903 34.6932 30.7754C34.6932 30.773 34.6938 30.7707 34.6938 30.7683H34.6937V26.7598C34.6937 26.5429 34.5242 26.3671 34.315 26.3671C34.1059 26.3671 33.9363 26.5429 33.9363 26.7598V30.1489L32.3769 29.3864C32.1877 29.2939 31.962 29.378 31.8728 29.5741C31.7837 29.7702 31.8647 30.0043 32.0539 30.0967L34.1535 31.1236C34.1556 31.1246 34.1578 31.1248 34.1599 31.1259C34.1781 31.1343 34.1971 31.1404 34.2166 31.1459C34.2231 31.1478 34.2296 31.1507 34.2361 31.1522C34.257 31.1568 34.2788 31.1586 34.3008 31.1595C34.3054 31.1597 34.3101 31.1611 34.3148 31.1611C34.3377 31.1611 34.3603 31.1582 34.3827 31.154C34.389 31.1528 34.3952 31.1514 34.4014 31.1498C34.4189 31.1456 34.4357 31.1401 34.4524 31.1335C34.4567 31.1317 34.4612 31.1305 34.4654 31.1285C34.4852 31.1197 34.5041 31.1089 34.5222 31.0966C34.5267 31.0935 34.5309 31.0901 34.5352 31.0868C34.5493 31.0764 34.5626 31.065 34.5752 31.0526C34.5794 31.0486 34.5834 31.0447 34.5874 31.0405C34.6017 31.025 34.6153 31.0085 34.6273 30.9903C34.6279 30.9894 34.6288 30.9884 34.6295 30.9874C34.6399 30.9712 34.6495 30.9541 34.6578 30.9358C34.6587 30.9336 34.6591 30.9311 34.6601 30.9289C34.6657 30.9158 34.6697 30.902 34.674 30.8881C34.6775 30.8767 34.6817 30.8654 34.6842 30.8539C34.6866 30.8429 34.6873 30.8314 34.6887 30.8202Z" fill="white"/>
</svg>
